<svg width="94" height="35" viewBox="0 0 94 35" fill="none" xmlns="http://www.w3.org/2000/svg">
<path d="M50.0444 20.2776C49.7508 21.9666 49.0449 23.2778 47.9275 24.2112C46.8097 25.1452 45.4433 25.6118 43.8281 25.6118C42.0006 25.6118 40.4997 25.0272 39.3249 23.8581C38.5417 23.0626 38.0522 22.198 37.8564 21.2641C37.6606 20.3305 37.5627 18.8405 37.5627 16.7944C37.5627 14.7484 37.6606 13.2588 37.8564 12.3249C38.0522 11.3913 38.5417 10.5266 39.3249 9.73083C40.4997 8.56166 42.0006 7.97707 43.8281 7.97707C45.4594 7.97707 46.8263 8.44408 47.9275 9.37765C49.0289 10.3117 49.7343 11.6227 50.0444 13.3114H47.3524C47.1566 12.3858 46.7566 11.655 46.1532 11.1192C45.5492 10.5833 44.7742 10.3154 43.8281 10.3154C42.7838 10.3154 41.9272 10.6728 41.2583 11.3871C40.8178 11.842 40.5321 12.4224 40.4018 13.1286C40.271 13.8351 40.2059 15.057 40.2059 16.7944C40.2059 18.5322 40.271 19.7539 40.4018 20.4602C40.5321 21.1666 40.8178 21.7474 41.2583 22.2017C41.9272 22.9165 42.7838 23.2736 43.8281 23.2736C44.7742 23.2736 45.5536 23.0057 46.1653 22.4697C46.7772 21.9338 47.189 21.2031 47.4013 20.2776H50.0444Z" fill="#FAFAFA"/>
<path d="M66.6867 25.4656H63.3337L56.3095 16.3803L62.8197 8.12319H66.0748L59.3688 16.3072L66.6867 25.4656ZM56.2852 25.4656H53.6418V8.12319H56.2852V25.4656Z" fill="#FAFAFA"/>
<path d="M77.5774 19.7416L74.9097 12.0447L72.1686 19.7416H77.5774ZM82.2764 25.4656H79.5108L78.2873 21.9825H71.4099L70.1863 25.4656H67.3961L73.784 8.12319H75.9131L82.2764 25.4656Z" fill="#FAFAFA"/>
<path d="M93.9997 10.4858H89.2028V25.4656H86.5596V10.4858H81.7627V8.12319H93.9997V10.4858Z" fill="#FAFAFA"/>
<path d="M44.8579 28.2874C44.8687 28.2982 44.8742 28.3131 44.8742 28.3319L44.9962 31.0637H44.8946L44.7726 28.3602H44.675L43.756 30.7845C43.7478 30.8089 43.7301 30.8209 43.7031 30.8209H43.5323C43.5051 30.8209 43.4876 30.8089 43.4794 30.7845L42.5604 28.3602H42.4629L42.3408 31.0637H42.2391L42.3612 28.3319C42.3612 28.3131 42.3666 28.2982 42.3774 28.2874C42.3882 28.2766 42.4032 28.2712 42.4222 28.2712H42.593C42.62 28.2712 42.6377 28.2834 42.6458 28.3076L43.4226 30.3515L43.5648 30.7319H43.6705L43.817 30.3434L44.5897 28.3076C44.5978 28.2834 44.6153 28.2712 44.6424 28.2712H44.8132C44.8322 28.2712 44.8471 28.2766 44.8579 28.2874Z" fill="#FAFAFA"/>
<path d="M46.6389 30.8713C46.8152 30.7918 46.9601 30.6981 47.0741 30.59V29.9709L46.09 29.9871C45.9706 29.9897 45.8798 30.0215 45.8176 30.0821C45.7551 30.1428 45.724 30.2313 45.724 30.3472V30.5981C45.724 30.7276 45.7599 30.8255 45.8317 30.8917C45.9036 30.9577 46.01 30.9908 46.151 30.9908C46.3001 30.9908 46.4627 30.951 46.6389 30.8713ZM47.1717 29.6148V31.0636H47.0984L47.0782 30.6873C46.9831 30.7843 46.845 30.8754 46.6634 30.9605C46.4818 31.0453 46.3041 31.0879 46.1307 31.0879C45.968 31.0879 45.8426 31.0453 45.7545 30.9605C45.6663 30.8754 45.6224 30.7546 45.6224 30.5981V30.3472C45.6224 30.2016 45.663 30.089 45.7444 30.0093C45.8257 29.9298 45.9409 29.8899 46.09 29.8899H47.0741V29.6148C47.0741 29.3152 46.9249 29.1654 46.6268 29.1654C46.3584 29.1654 46.0534 29.1871 45.7118 29.2302L45.6997 29.1574L45.8135 29.1412C45.9706 29.1196 46.1077 29.1027 46.2243 29.0907C46.3407 29.0785 46.4763 29.0723 46.6308 29.0723C46.9914 29.0723 47.1717 29.2532 47.1717 29.6148Z" fill="#FAFAFA"/>
<path d="M49.1785 30.9281C49.2666 30.8674 49.3309 30.7703 49.3717 30.6366C49.4124 30.5031 49.4326 30.3216 49.4326 30.0923C49.4326 29.8631 49.4124 29.6815 49.3717 29.548C49.3309 29.4144 49.2666 29.3173 49.1785 29.2567C49.0903 29.1959 48.9732 29.1655 48.8267 29.1655C48.702 29.1655 48.5787 29.1959 48.4567 29.2567C48.3347 29.3173 48.1911 29.4179 48.0257 29.5581V30.8248C48.1992 30.895 48.3454 30.9449 48.4648 30.9747C48.5842 31.0043 48.7048 31.0192 48.8267 31.0192C48.9732 31.0192 49.0903 30.9888 49.1785 30.9281ZM49.2395 29.1737C49.3412 29.2412 49.4158 29.349 49.4632 29.4973C49.5107 29.6458 49.5343 29.8441 49.5343 30.0923C49.5343 30.3406 49.5107 30.5389 49.4632 30.6873C49.4158 30.8358 49.3412 30.9436 49.2395 31.0111C49.1379 31.0784 49.0003 31.1123 48.8267 31.1123C48.6965 31.1123 48.5658 31.0947 48.4343 31.0597C48.3028 31.0246 48.1625 30.9706 48.0135 30.8977C48.0216 30.9599 48.0257 31.0407 48.0257 31.1406V31.2701V31.9136H47.928V29.121H48.0012L48.0176 29.4732C48.1638 29.3383 48.3022 29.2378 48.4322 29.1716C48.5624 29.1056 48.6939 29.0724 48.8267 29.0724C49.0003 29.0724 49.1379 29.1062 49.2395 29.1737Z" fill="#FAFAFA"/>
<path d="M51.1995 30.1814C51.293 30.2598 51.373 30.3562 51.4394 30.4708C51.5059 30.5855 51.5878 30.7454 51.6855 30.9504C51.7125 31.0126 51.7302 31.0502 51.7384 31.0637H51.6285L51.5675 30.9424C51.4699 30.7373 51.3878 30.5801 51.3215 30.4708C51.255 30.3617 51.1717 30.2711 51.0714 30.1997C50.9711 30.1281 50.8492 30.0924 50.7055 30.0924H50.2947C50.3001 30.1464 50.3029 30.2246 50.3029 30.3271V31.0637H50.2053V29.1211H50.3029V29.7727C50.3029 29.8213 50.3001 29.8996 50.2947 30.0074H50.7013C50.8449 30.0074 50.9677 29.967 51.0693 29.886C51.171 29.8051 51.2544 29.7107 51.3195 29.6027C51.3845 29.4949 51.4699 29.3344 51.5757 29.1211H51.6814C51.581 29.3262 51.499 29.4854 51.4353 29.5986C51.3716 29.712 51.2924 29.8126 51.1975 29.9002C51.1026 29.9879 50.9941 30.0371 50.8722 30.0479V30.0519C50.9969 30.06 51.106 30.1032 51.1995 30.1814Z" fill="#FAFAFA"/>
<path d="M52.5923 29.2526C52.4866 29.3107 52.4094 29.4043 52.3606 29.5339C52.3118 29.6634 52.2859 29.8374 52.2833 30.056H53.369C53.4801 30.056 53.5608 30.0236 53.611 29.9589C53.6612 29.894 53.6863 29.7969 53.6863 29.6674C53.6863 29.4948 53.6326 29.368 53.5257 29.287C53.4185 29.206 53.2512 29.1655 53.0234 29.1655C52.8417 29.1655 52.698 29.1946 52.5923 29.2526ZM53.7268 30.9665L53.7432 31.0394C53.6807 31.0583 53.5778 31.0752 53.4341 31.0901C53.2904 31.1048 53.163 31.1123 53.0519 31.1123C52.843 31.1123 52.6757 31.0778 52.5496 31.009C52.4236 30.9402 52.3308 30.831 52.271 30.6811C52.2114 30.5315 52.1816 30.3325 52.1816 30.0843C52.1816 29.8333 52.2094 29.635 52.265 29.4894C52.3206 29.3437 52.4094 29.2379 52.5313 29.1716C52.6533 29.1056 52.816 29.0724 53.0193 29.0724C53.2796 29.0724 53.4728 29.1211 53.5988 29.2182C53.7249 29.3153 53.7879 29.4624 53.7879 29.6593C53.7879 29.8239 53.7554 29.946 53.6903 30.0257C53.6253 30.1052 53.5181 30.145 53.369 30.145H52.2833C52.2888 30.3609 52.3192 30.5329 52.3748 30.661C52.4304 30.7892 52.5137 30.8809 52.6249 30.9362C52.736 30.9915 52.8824 31.0192 53.064 31.0192C53.2891 31.0192 53.51 31.0017 53.7268 30.9665Z" fill="#FAFAFA"/>
<path d="M55.7521 29.2102H54.9672V31.0637H54.8656V29.2102H54.0848V29.1211H55.7521V29.2102Z" fill="#FAFAFA"/>
<path d="M57.8545 31.0637H57.7569V29.2627H57.7529C57.7258 29.3059 57.6863 29.3613 57.6349 29.4287L56.3458 31.0637H56.2563V29.1211H56.3539V30.6955V30.9221H56.358C56.3932 30.8682 56.438 30.8074 56.4922 30.74L57.765 29.1211H57.8545V31.0637Z" fill="#FAFAFA"/>
<path d="M60.1561 29.1211V31.0637H60.0585V30.0681H58.7166V31.0637H58.619V29.1211H58.7166V29.9831H60.0585V29.1211H60.1561Z" fill="#FAFAFA"/>
<path d="M62.1974 29.1332V29.2102H61.3068C61.2066 29.2102 61.132 29.2351 61.0833 29.2849C61.0344 29.335 61.0099 29.4111 61.0099 29.5137V31.0637H60.9125V29.5015C60.9125 29.3828 60.9456 29.2897 61.0121 29.2223C61.0785 29.1549 61.17 29.1211 61.2866 29.1211C61.6851 29.1211 61.9887 29.1252 62.1974 29.1332Z" fill="#FAFAFA"/>
<path d="M62.9456 29.2526C62.8371 29.3107 62.7585 29.4063 62.7097 29.54C62.661 29.6735 62.6365 29.8576 62.6365 30.0923C62.6365 30.3271 62.661 30.5112 62.7097 30.6448C62.7585 30.7784 62.8371 30.8743 62.9456 30.9321C63.054 30.9902 63.2018 31.0192 63.389 31.0192C63.5759 31.0192 63.7236 30.9902 63.8321 30.9321C63.9406 30.8743 64.0193 30.7784 64.0681 30.6448C64.1169 30.5112 64.1412 30.3271 64.1412 30.0923C64.1412 29.8576 64.1169 29.6735 64.0681 29.54C64.0193 29.4063 63.9406 29.3107 63.8321 29.2526C63.7236 29.1946 63.5759 29.1655 63.389 29.1655C63.2018 29.1655 63.054 29.1946 62.9456 29.2526ZM63.8911 29.1716C64.0145 29.2379 64.1039 29.3443 64.1596 29.4914C64.215 29.6385 64.2429 29.8388 64.2429 30.0923C64.2429 30.346 64.215 30.5464 64.1596 30.6935C64.1039 30.8404 64.0145 30.9471 63.8911 31.0131C63.7678 31.0791 63.6004 31.1123 63.389 31.1123C63.1773 31.1123 63.0101 31.0791 62.8867 31.0131C62.7633 30.9471 62.6737 30.8404 62.6183 30.6935C62.5626 30.5464 62.5349 30.346 62.5349 30.0923C62.5349 29.8388 62.5626 29.6385 62.6183 29.4914C62.6737 29.3443 62.7633 29.2379 62.8867 29.1716C63.0101 29.1056 63.1773 29.0724 63.389 29.0724C63.6004 29.0724 63.7678 29.1056 63.8911 29.1716Z" fill="#FAFAFA"/>
<path d="M66.1075 30.9644C66.2009 30.9415 66.2687 30.8997 66.3108 30.839C66.3528 30.7783 66.3738 30.6912 66.3738 30.5779C66.3738 30.4539 66.3514 30.3581 66.3068 30.2906C66.2619 30.2233 66.19 30.1752 66.0911 30.1469C65.9922 30.1186 65.8545 30.1044 65.6783 30.1044H65.0034V30.9948C65.0629 30.9975 65.2107 30.9988 65.4465 30.9988H65.7109C65.8816 30.9988 66.0139 30.9875 66.1075 30.9644ZM65.3815 29.1898C65.1835 29.1898 65.0575 29.1912 65.0034 29.1938V30.0235H65.6783C65.8384 30.0209 65.9623 30.0087 66.0505 29.9871C66.1386 29.9655 66.2029 29.9263 66.2436 29.8696C66.2844 29.8131 66.3046 29.7308 66.3046 29.6229C66.3046 29.5068 66.2823 29.4179 66.2376 29.3557C66.1928 29.2936 66.1209 29.2505 66.022 29.2262C65.9231 29.2018 65.7842 29.1898 65.6052 29.1898H65.3815ZM66.3635 30.2137C66.4381 30.2974 66.4754 30.4201 66.4754 30.582C66.4754 30.7142 66.4511 30.8168 66.4022 30.8896C66.3534 30.9623 66.2749 31.0137 66.1664 31.0434C66.0579 31.0729 65.9074 31.0879 65.7149 31.0879C65.3843 31.0879 65.1159 31.0798 64.9098 31.0636V29.1251C65.0887 29.1089 65.3206 29.1008 65.6052 29.1008C65.8085 29.1008 65.9671 29.1156 66.0809 29.1453C66.1948 29.175 66.2775 29.227 66.3291 29.3011C66.3805 29.3754 66.4063 29.4813 66.4063 29.6187C66.4063 29.7564 66.3724 29.8615 66.3046 29.9344C66.2368 30.0073 66.1298 30.0493 65.9834 30.0598V30.0679C66.1624 30.0815 66.2891 30.1301 66.3635 30.2137Z" fill="#FAFAFA"/>
<path d="M67.4311 29.2526C67.3225 29.3107 67.2439 29.4063 67.1952 29.54C67.1463 29.6735 67.122 29.8576 67.122 30.0923C67.122 30.3271 67.1463 30.5112 67.1952 30.6448C67.2439 30.7784 67.3225 30.8743 67.4311 30.9321C67.5394 30.9902 67.6872 31.0192 67.8743 31.0192C68.0614 31.0192 68.2091 30.9902 68.3174 30.9321C68.4259 30.8743 68.5046 30.7784 68.5535 30.6448C68.6022 30.5112 68.6266 30.3271 68.6266 30.0923C68.6266 29.8576 68.6022 29.6735 68.5535 29.54C68.5046 29.4063 68.4259 29.3107 68.3174 29.2526C68.2091 29.1946 68.0614 29.1655 67.8743 29.1655C67.6872 29.1655 67.5394 29.1946 67.4311 29.2526ZM68.3766 29.1716C68.4998 29.2379 68.5893 29.3443 68.645 29.4914C68.7004 29.6385 68.7283 29.8388 68.7283 30.0923C68.7283 30.346 68.7004 30.5464 68.645 30.6935C68.5893 30.8404 68.4998 30.9471 68.3766 31.0131C68.2531 31.0791 68.0858 31.1123 67.8743 31.1123C67.6628 31.1123 67.4954 31.0791 67.3722 31.0131C67.2487 30.9471 67.1592 30.8404 67.1037 30.6935C67.0481 30.5464 67.0204 30.346 67.0204 30.0923C67.0204 29.8388 67.0481 29.6385 67.1037 29.4914C67.1592 29.3443 67.2487 29.2379 67.3722 29.1716C67.4954 29.1056 67.6628 29.0724 67.8743 29.0724C68.0858 29.0724 68.2531 29.1056 68.3766 29.1716Z" fill="#FAFAFA"/>
<path d="M69.7041 29.2526C69.5984 29.3107 69.5212 29.4043 69.4724 29.5339C69.4236 29.6634 69.3977 29.8374 69.3952 30.056H70.4808C70.5919 30.056 70.6726 30.0236 70.7228 29.9589C70.773 29.894 70.7981 29.7969 70.7981 29.6674C70.7981 29.4948 70.7444 29.368 70.6375 29.287C70.5303 29.206 70.363 29.1655 70.1352 29.1655C69.9535 29.1655 69.8098 29.1946 69.7041 29.2526ZM70.8387 30.9665L70.855 31.0394C70.7925 31.0583 70.6896 31.0752 70.5459 31.0901C70.4022 31.1048 70.2748 31.1123 70.1637 31.1123C69.9549 31.1123 69.7875 31.0778 69.6614 31.009C69.5354 30.9402 69.4426 30.831 69.3828 30.6811C69.3232 30.5315 69.2935 30.3325 69.2935 30.0843C69.2935 29.8333 69.3212 29.635 69.3768 29.4894C69.4324 29.3437 69.5212 29.2379 69.6431 29.1716C69.7651 29.1056 69.9278 29.0724 70.1311 29.0724C70.3914 29.0724 70.5846 29.1211 70.7106 29.2182C70.8367 29.3153 70.8997 29.4624 70.8997 29.6593C70.8997 29.8239 70.8672 29.946 70.8021 30.0257C70.7371 30.1052 70.6299 30.145 70.4808 30.145H69.3952C69.4006 30.3609 69.431 30.5329 69.4866 30.661C69.5422 30.7892 69.6255 30.8809 69.7367 30.9362C69.8478 30.9915 69.9942 31.0192 70.1758 31.0192C70.4009 31.0192 70.6218 31.0017 70.8387 30.9665Z" fill="#FAFAFA"/>
<path d="M73.3761 30.8713C73.5524 30.7918 73.6974 30.6981 73.8112 30.59V29.9709L72.8272 29.9871C72.7078 29.9897 72.617 30.0215 72.5547 30.0821C72.4923 30.1428 72.4612 30.2313 72.4612 30.3472V30.5981C72.4612 30.7276 72.4971 30.8255 72.5689 30.8917C72.6408 30.9577 72.7472 30.9908 72.8881 30.9908C73.0372 30.9908 73.1998 30.951 73.3761 30.8713ZM73.9089 29.6148V31.0636H73.8357L73.8153 30.6873C73.7204 30.7843 73.5822 30.8754 73.4006 30.9605C73.219 31.0453 73.0412 31.0879 72.8679 31.0879C72.7052 31.0879 72.5798 31.0453 72.4917 30.9605C72.4035 30.8754 72.3596 30.7546 72.3596 30.5981V30.3472C72.3596 30.2016 72.4002 30.089 72.4815 30.0093C72.5629 29.9298 72.678 29.8899 72.8272 29.8899H73.8112V29.6148C73.8112 29.3152 73.6621 29.1654 73.364 29.1654C73.0956 29.1654 72.7906 29.1871 72.449 29.2302L72.4369 29.1574L72.5507 29.1412C72.7078 29.1196 72.8449 29.1027 72.9614 29.0907C73.0779 29.0785 73.2135 29.0723 73.368 29.0723C73.7285 29.0723 73.9089 29.2532 73.9089 29.6148Z" fill="#FAFAFA"/>
<path d="M75.9381 29.1332V29.2102H75.0475C74.9473 29.2102 74.8727 29.2351 74.8239 29.2849C74.7751 29.335 74.7507 29.4111 74.7507 29.5137V31.0637H74.6531V29.5015C74.6531 29.3828 74.6863 29.2897 74.7528 29.2223C74.8192 29.1549 74.9107 29.1211 75.0273 29.1211C75.4259 29.1211 75.7294 29.1252 75.9381 29.1332Z" fill="#FAFAFA"/>
<path d="M76.6822 29.2526C76.5765 29.3107 76.4992 29.4043 76.4504 29.5339C76.4016 29.6634 76.3757 29.8374 76.3732 30.056H77.4588C77.57 30.056 77.6507 30.0236 77.7009 29.9589C77.7511 29.894 77.7762 29.7969 77.7762 29.6674C77.7762 29.4948 77.7226 29.368 77.6156 29.287C77.5084 29.206 77.341 29.1655 77.1133 29.1655C76.9316 29.1655 76.7879 29.1946 76.6822 29.2526ZM77.8167 30.9665L77.8331 31.0394C77.7706 31.0583 77.6677 31.0752 77.524 31.0901C77.3803 31.1048 77.2529 31.1123 77.1418 31.1123C76.9329 31.1123 76.7655 31.0778 76.6395 31.009C76.5134 30.9402 76.4206 30.831 76.361 30.6811C76.3013 30.5315 76.2715 30.3325 76.2715 30.0843C76.2715 29.8333 76.2993 29.635 76.3548 29.4894C76.4104 29.3437 76.4992 29.2379 76.6211 29.1716C76.7432 29.1056 76.9059 29.0724 77.1092 29.0724C77.3695 29.0724 77.5627 29.1211 77.6887 29.2182C77.8148 29.3153 77.8778 29.4624 77.8778 29.6593C77.8778 29.8239 77.8453 29.946 77.7802 30.0257C77.7152 30.1052 77.608 30.145 77.4588 30.145H76.3732C76.3786 30.3609 76.4091 30.5329 76.4647 30.661C76.5202 30.7892 76.6036 30.8809 76.7147 30.9362C76.8259 30.9915 76.9724 31.0192 77.1539 31.0192C77.3789 31.0192 77.5999 31.0017 77.8167 30.9665Z" fill="#FAFAFA"/>
<path d="M80.0532 29.1211V31.0637H79.9557V30.0681H78.6137V31.0637H78.5161V29.1211H78.6137V29.9831H79.9557V29.1211H80.0532Z" fill="#FAFAFA"/>
<path d="M81.8874 29.0887C81.9877 29.0995 82.0771 29.1171 82.1557 29.1413L82.1315 29.2142C82.0664 29.1979 81.985 29.1859 81.8874 29.1778C81.7897 29.1696 81.7016 29.1655 81.623 29.1655C81.4197 29.1655 81.2605 29.1933 81.1452 29.2485C81.0299 29.3039 80.9466 29.3984 80.8951 29.5319C80.8437 29.6654 80.8179 29.8522 80.8179 30.0923C80.8179 30.3325 80.8437 30.5194 80.8951 30.653C80.9466 30.7866 81.0299 30.8809 81.1452 30.9362C81.2605 30.9915 81.4197 31.0192 81.623 31.0192C81.6962 31.0192 81.7884 31.0151 81.8996 31.007C82.0108 30.9989 82.1056 30.9868 82.1843 30.9706L82.2005 31.0435C81.9972 31.0893 81.8006 31.1123 81.6109 31.1123C81.3913 31.1123 81.2164 31.0791 81.0863 31.0131C80.9561 30.9471 80.862 30.8397 80.8037 30.6913C80.7453 30.543 80.7162 30.3433 80.7162 30.0923C80.7162 29.8415 80.7453 29.6419 80.8037 29.4934C80.862 29.3451 80.9554 29.2379 81.0843 29.1716C81.213 29.1056 81.3872 29.0724 81.6068 29.0724C81.6935 29.0724 81.787 29.078 81.8874 29.0887Z" fill="#FAFAFA"/>
<path d="M84.1686 29.2102H83.3837V31.0637H83.2821V29.2102H82.5013V29.1211H84.1686V29.2102Z" fill="#FAFAFA"/>
<path d="M85.8704 30.9644C85.9638 30.9415 86.0316 30.8997 86.0736 30.839C86.1157 30.7783 86.1368 30.6912 86.1368 30.5779C86.1368 30.4539 86.1143 30.3581 86.0696 30.2906C86.0249 30.2233 85.9529 30.1752 85.8541 30.1469C85.7551 30.1186 85.6175 30.1044 85.4414 30.1044H84.7664V30.9948C84.826 30.9975 84.9737 30.9988 85.2095 30.9988H85.4739C85.6446 30.9988 85.7768 30.9875 85.8704 30.9644ZM85.1445 29.1898C84.9466 29.1898 84.8206 29.1912 84.7664 29.1938V30.0235H85.4414C85.6013 30.0209 85.7252 30.0087 85.8134 29.9871C85.9015 29.9655 85.9658 29.9263 86.0066 29.8696C86.0473 29.8131 86.0676 29.7308 86.0676 29.6229C86.0676 29.5068 86.0452 29.4179 86.0005 29.3557C85.9558 29.2936 85.8838 29.2505 85.785 29.2262C85.686 29.2018 85.5471 29.1898 85.3682 29.1898H85.1445ZM86.1265 30.2137C86.2011 30.2974 86.2383 30.4201 86.2383 30.582C86.2383 30.7142 86.214 30.8168 86.1651 30.8896C86.1163 30.9623 86.0377 31.0137 85.9293 31.0434C85.8209 31.0729 85.6703 31.0879 85.4779 31.0879C85.1472 31.0879 84.8788 31.0798 84.6729 31.0636V29.1251C84.8517 29.1089 85.0835 29.1008 85.3682 29.1008C85.5715 29.1008 85.73 29.1156 85.8439 29.1453C85.9577 29.175 86.0404 29.227 86.092 29.3011C86.1434 29.3754 86.1693 29.4813 86.1693 29.6187C86.1693 29.7564 86.1353 29.8615 86.0676 29.9344C85.9997 30.0073 85.8927 30.0493 85.7463 30.0598V30.0679C85.9253 30.0815 86.052 30.1301 86.1265 30.2137Z" fill="#FAFAFA"/>
<path d="M87.1941 29.2526C87.0856 29.3107 87.0071 29.4063 86.9583 29.54C86.9095 29.6735 86.885 29.8576 86.885 30.0923C86.885 30.3271 86.9095 30.5112 86.9583 30.6448C87.0071 30.7784 87.0856 30.8743 87.1941 30.9321C87.3025 30.9902 87.4503 31.0192 87.6374 31.0192C87.8244 31.0192 87.9721 30.9902 88.0805 30.9321C88.1889 30.8743 88.2676 30.7784 88.3165 30.6448C88.3652 30.5112 88.3896 30.3271 88.3896 30.0923C88.3896 29.8576 88.3652 29.6735 88.3165 29.54C88.2676 29.4063 88.1889 29.3107 88.0805 29.2526C87.9721 29.1946 87.8244 29.1655 87.6374 29.1655C87.4503 29.1655 87.3025 29.1946 87.1941 29.2526ZM88.1396 29.1716C88.2629 29.2379 88.3523 29.3443 88.408 29.4914C88.4634 29.6385 88.4913 29.8388 88.4913 30.0923C88.4913 30.346 88.4634 30.5464 88.408 30.6935C88.3523 30.8404 88.2629 30.9471 88.1396 31.0131C88.0162 31.0791 87.8488 31.1123 87.6374 31.1123C87.4258 31.1123 87.2585 31.0791 87.1352 31.0131C87.0118 30.9471 86.9223 30.8404 86.8668 30.6935C86.8111 30.5464 86.7834 30.346 86.7834 30.0923C86.7834 29.8388 86.8111 29.6385 86.8668 29.4914C86.9223 29.3443 87.0118 29.2379 87.1352 29.1716C87.2585 29.1056 87.4258 29.0724 87.6374 29.0724C87.8488 29.0724 88.0162 29.1056 88.1396 29.1716Z" fill="#FAFAFA"/>
<path d="M4.69055 12.4325L7.61174 15.1504L12.2193 14.5401L4.69055 12.4325Z" fill="#C2E245"/>
<path d="M6.9513 12.3982L6.91522 11.0619L5.05969 10.6369L6.9513 12.3982Z" fill="#E6E009"/>
<path d="M3.25767 11.4146L4.09989 11.2705L2.6427 10.0327L3.25767 11.4146Z" fill="#E6E009"/>
<path d="M5.20386 11.9417L4.55923 10.8783L4.2417 11.7468L5.20386 11.9417Z" fill="#F7D606"/>
<path d="M5.43554 10.1963L5.11926 9.74432L4.93909 10.1288L5.43554 10.1963Z" fill="#F7D606"/>
<path d="M3.84941 9.08154L3.63182 8.73808L3.51929 9.02192L3.84941 9.08154Z" fill="#F7D606"/>
<path d="M2.96423 9.55273L3.35858 9.47874L3.14418 9.26438L2.96423 9.55273Z" fill="#F68114"/>
<path d="M4.39278 10.4717L3.94218 9.85236L3.677 10.3855L4.39278 10.4717Z" fill="#F7D606"/>
<path d="M11.1348 13.9358L7.55945 11.0492L7.57161 12.5447L11.1348 13.9358Z" fill="#D5E613"/>
<path d="M23.1288 5.4453L23.9354 9.60156L24.0106 3.90978L23.1288 5.4453Z" fill="#7847A7"/>
<path d="M23.2837 1.91686L23.7815 2.91016L23.8064 2.13886L23.2837 1.91686Z" fill="#7847A7"/>
<path d="M22.8199 4.69727L22.3694 2.38082L23.1996 3.63417L22.8199 4.69727Z" fill="#654AA9"/>
<path d="M23.1548 1.56079L23.0623 0.779758L22.7946 1.2002L23.1548 1.56079Z" fill="#654AA9"/>
<path d="M23.5811 11.1099L23.8448 11.4668L23.8579 11.1897L23.5811 11.1099Z" fill="#7847A7"/>
<path d="M23.5126 10.9819L23.4637 10.7014L23.3218 10.8524L23.5126 10.9819Z" fill="#654AA9"/>
<path d="M24.1422 1.12331L24.2197 1.36035L24.2303 1.19023L24.1422 1.12331Z" fill="#9F3FA5"/>
<path d="M22.0413 0.621091L22.1113 0.844971L22.119 0.711461L22.0413 0.621091Z" fill="#654AA9"/>
<path d="M22.4255 0.000301063L22.5339 0.875244L22.5917 0.324285L22.4255 0.000301063Z" fill="#654AA9"/>
<path d="M22.1205 1.68652L21.9686 1.05515L21.9622 1.44494L22.1205 1.68652Z" fill="#9F3FA5"/>
<path d="M21.9022 0.650146L21.9301 0.383459L21.8434 0.54274L21.9022 0.650146Z" fill="#654AA9"/>
<path d="M2.19531 8.96219L2.54147 9.05786L2.3718 8.87071L2.19531 8.96219Z" fill="#F68114"/>
<path d="M1.87535 8.53906L1.77258 8.37347L1.72058 8.50964L1.87535 8.53906Z" fill="#F68114"/>
<path d="M14.3287 20.8339L8.05408 15.8054L18.9803 21.9509L14.3287 20.8339Z" fill="#E6E009"/>
<path d="M15.1344 24.8045L20.5856 25.8948L14.3286 20.8319L15.1344 24.8045Z" fill="#F68114"/>
<path d="M20.2339 24.6812L22.8636 26.3884L18.9802 21.9511L20.2339 24.6812Z" fill="#F6E907"/>
<path d="M15.1344 24.8044L21.4894 29.897L20.1244 27.9449L15.1344 24.8044Z" fill="#77311B"/>
<path d="M20.5856 25.8948L22.5684 27.585L15.1344 24.8045L20.5856 25.8948Z" fill="#F68114"/>
<path d="M22.5683 27.5849L28.0733 30.3093L21.6495 29.5484L22.5683 27.5849Z" fill="#F68114"/>
<path d="M21.4894 29.897L33.1649 33.9958L27.631 31.6692L21.4894 29.897Z" fill="#77311B"/>
<path d="M28.0734 30.3093L34.044 32.8558L33.1649 33.9958L28.0734 30.3093Z" fill="#F2F14D"/>
<path d="M34.0439 32.8559L37.5383 34.2639L33.1649 33.9959L34.0439 32.8559Z" fill="#F47515"/>
<path d="M37.5383 34.2639L38.8618 33.3326L37.9528 33.5373L37.5383 34.2639Z" fill="#F47515"/>
<path d="M36.7138 33.2312L34.0441 32.8559L37.5384 34.2639L36.7138 33.2312Z" fill="#F8AF0B"/>
<path d="M0 34.9998L3.5227 29.4639L2.88766 29.1988L0 34.9998Z" fill="#F47515"/>
<path d="M2.8877 29.1988L8.02492 25.4511L3.52273 29.4639L2.8877 29.1988Z" fill="#F8AF0B"/>
<path d="M8.0249 25.4512L13.0975 22.1967L13.7853 23.0913L8.0249 25.4512Z" fill="#F68114"/>
<path d="M7.22825 24.4138L8.02492 25.451L2.8877 29.1987L7.22825 24.4138Z" fill="#5943A3"/>
<path d="M7.22827 24.4139L12.6599 21.6115L8.02494 25.4512L7.22827 24.4139Z" fill="#5956AF"/>
<path d="M39.715 30.7446L35.724 28.2225L34.9174 30.0647L39.715 30.7446Z" fill="#F6E907"/>
<path d="M34.9173 30.0647L33.1809 26.6153L35.7239 28.2226L34.9173 30.0647Z" fill="#F8AF0B"/>
<path d="M39.715 30.7446L33.0447 23.9673L33.1809 26.6152L39.715 30.7446Z" fill="#6CC7D9"/>
<path d="M25.6067 4.82855L24.8344 11.2592L29.8799 14.688L25.6067 4.82855Z" fill="#7847A7"/>
<path d="M29.8799 14.688L28.5184 20.5278L27.5408 18.7166L29.8799 14.688Z" fill="#4F4DA9"/>
<path d="M29.8799 14.688L28.5184 20.5279L33.0447 23.9673L29.8799 14.688Z" fill="#494EA9"/>
<path d="M33.0447 23.9673L33.181 26.6152L28.5184 20.5279L33.0447 23.9673Z" fill="#67A4DA"/>
<path d="M28.0734 30.3091L29.8856 29.3259L34.044 32.8557L28.0734 30.3091Z" fill="#67A4DA"/>
<path d="M29.1644 28.9356L22.86 26.3881L28.0733 30.3093L29.1644 28.9356Z" fill="#67A4DA"/>
<path d="M21.3986 18.8057L33.181 26.6152L28.5185 20.5279L21.3986 18.8057Z" fill="#74C5D8"/>
<path d="M21.3986 18.8057L23.7531 12.4141L27.5408 18.7166L21.3986 18.8057Z" fill="#757AC5"/>
<path d="M21.3986 18.8057L22.8601 26.388L33.181 26.6152L21.3986 18.8057Z" fill="#70CFD3"/>
<path d="M22.1259 22.5792L18.7245 21.6612L22.86 26.3879L22.1259 22.5792Z" fill="#67A4DA"/>
<path d="M19.9864 20.3137L15.9768 18.8483L18.7245 21.6614L19.9864 20.3137Z" fill="#6CC6D9"/>
<path d="M12.6599 21.6114L12.0494 20.8868L7.22827 24.4138L12.6599 21.6114Z" fill="#67A4DA"/>
<path d="M34.9173 30.0647L33.4063 29.0438L33.1809 26.6153L34.9173 30.0647Z" fill="#F68114"/>
<path d="M37.8725 32.4052L34.2695 31.8728L34.0441 32.8557L37.8725 32.4052Z" fill="#70CFD3"/>
<path d="M34.2694 31.8728L29.6646 29.1385L34.044 32.8557L34.2694 31.8728Z" fill="#6CC7D9"/>
<path d="M29.6646 29.1387L33.181 26.6153L32.3508 28.8388L29.6646 29.1387Z" fill="#6CC7D9"/>
<path d="M32.3508 28.8388L34.2694 31.873L29.6646 29.1387L32.3508 28.8388Z" fill="#70CFD3"/>
<path d="M33.4063 29.0437L32.3507 28.8387L33.1809 26.6152L33.4063 29.0437Z" fill="#F47515"/>
<path d="M34.9174 30.0646L38.3934 31.1785L38.4641 30.5666L34.9174 30.0646Z" fill="#F47515"/>
<path d="M38.3934 31.1785L39.715 30.7445L38.4641 30.5667L38.3934 31.1785Z" fill="#F47515"/>
<path d="M22.86 26.388L22.5684 27.5848L25.4963 28.3716L22.86 26.388Z" fill="#F2F14D"/>
<path d="M25.4964 28.3717L28.0734 30.3093L25.2496 28.9123L25.4964 28.3717Z" fill="#F2F14D"/>
<path d="M22.5684 27.5848L25.4963 28.3715L25.2496 28.9121L22.5684 27.5848Z" fill="#F6E907"/>
<path d="M20.5856 25.8948L22.5683 27.585L22.7453 26.8591L20.5856 25.8948Z" fill="#F8AF0B"/>
<path d="M22.8601 26.3879L20.5857 25.8946L20.234 24.6811L22.8601 26.3879Z" fill="#F6E907"/>
<path d="M20.234 24.6812L14.3286 20.8319L20.5856 25.8948L20.234 24.6812Z" fill="#F8AF0B"/>
<path d="M15.1344 24.8043L20.1244 27.9448L22.5684 27.5848L15.1344 24.8043Z" fill="#F68114"/>
<path d="M20.1244 27.9449L22.5684 27.5849L21.6496 29.5483L20.1244 27.9449Z" fill="#F68114"/>
<path d="M13.0579 20.9314L14.3287 20.8319L15.1345 24.8044L13.0579 20.9314Z" fill="#F68114"/>
<path d="M13.0578 20.9312L14.3287 20.8317L8.05396 15.8032L13.0578 20.9312Z" fill="#F7D606"/>
<path d="M36.7137 33.2312L37.5383 34.2639L37.9528 33.5373L36.7137 33.2312Z" fill="#F8AF0B"/>
<path d="M34.0441 32.8559L37.8725 32.4054L36.7138 33.2312L34.0441 32.8559Z" fill="#F8EA45"/>
<path d="M37.8724 32.4055L37.9528 33.5374L38.8618 33.3327L37.8724 32.4055Z" fill="#F8AF0B"/>
<path d="M29.6645 29.1387L33.1809 26.6153L22.86 26.3881L29.6645 29.1387Z" fill="#6CC7D9"/>
<path d="M18.7245 21.6614L21.3985 18.8057L22.1259 22.5793L18.7245 21.6614Z" fill="#70CFD3"/>
<path d="M15.9755 18.8483L21.3986 18.8055L19.9856 20.3149L15.9755 18.8483Z" fill="#70CFD3"/>
<path d="M21.3986 18.8056L27.5408 18.7166L28.5185 20.5278L21.3986 18.8056Z" fill="#6686CD"/>
<path d="M24.5385 12.3353L27.5409 18.7166L29.4814 14.6976L24.5385 12.3353Z" fill="#654AA9"/>
<path d="M33.4757 29.7925L33.5653 30.7571L34.9174 30.0648L33.4757 29.7925Z" fill="#31261C"/>
<path d="M33.4757 29.7925L32.3507 28.8389L33.5653 30.7571L33.4757 29.7925Z" fill="#3C3C56"/>
<path d="M33.4064 29.0438L33.4757 29.7924L34.9173 30.0647L33.4064 29.0438Z" fill="#77311B"/>
<path d="M33.4064 29.0436L32.3507 28.8386L33.4757 29.7922L33.4064 29.0436Z" fill="#77311B"/>
<path d="M20.1244 27.9449L21.6496 29.5483L21.4895 29.897L20.1244 27.9449Z" fill="#A2551F"/>
<path d="M21.4894 29.8969L21.6495 29.5483L27.7108 30.613L21.4894 29.8969Z" fill="#F1571C"/>
<path d="M27.631 31.6692L27.7108 30.6131L21.4894 29.8969L27.631 31.6692Z" fill="#77311B"/>
<path d="M28.0733 30.3092L27.7108 30.613L21.6495 29.5483L28.0733 30.3092Z" fill="#F68114"/>
<path d="M22.86 26.3882L20.5856 25.8948L22.7453 26.8591L22.86 26.3882Z" fill="#F6E907"/>
<path d="M27.7108 30.6131L28.0734 30.3093L33.1649 33.9958L27.7108 30.6131Z" fill="#F8AF0B"/>
<path d="M27.7109 30.6131L27.6311 31.6692L33.165 33.9958L27.7109 30.6131Z" fill="#F68114"/>
<path d="M11.4809 20.1551L12.0494 20.8868L7.22827 24.4138L11.4809 20.1551Z" fill="#70CFD3"/>
<path d="M8.0249 25.4512L14.4013 23.8954L13.7853 23.0913L8.0249 25.4512Z" fill="#A2551F"/>
<path d="M12.6598 21.6115L13.0975 22.1966L8.0249 25.4512L12.6598 21.6115Z" fill="#F8AF0B"/>
<path d="M29.1645 28.9355L28.9904 29.6306L29.6646 29.1386L29.1645 28.9355Z" fill="#E5D8E1"/>
<path d="M29.8856 29.326L28.9904 29.6306L29.6645 29.1386L29.8856 29.326Z" fill="#5956AF"/>
<path d="M29.1645 28.9356L28.9903 29.6307L28.0734 30.3093L29.1645 28.9356Z" fill="#67A4DA"/>
<path d="M28.0734 30.3093L28.9903 29.6307L29.8855 29.3261L28.0734 30.3093Z" fill="#67A4DA"/>
<path d="M29.3107 29.1973L29.1646 28.9355L29.6646 29.1385L29.8856 29.3259L29.552 29.2194L29.3107 29.1973Z" fill="#3C3C56"/>
<path d="M37.9528 33.5374L37.8724 32.4055L36.7137 33.2313L37.9528 33.5374Z" fill="#F6E907"/>
<path d="M14.3286 20.8318L18.9803 21.951L20.234 24.6812L14.3286 20.8318Z" fill="#F8AF0B"/>
<path d="M24.2568 10.7554L24.3279 1.38296L25.2559 3.27377L24.2568 10.7554Z" fill="#9F3FA5"/>
<path d="M7.86841 15.9577L15.1344 24.8044L13.0578 20.9313L7.86841 15.9577Z" fill="#F7A40F"/>
<path d="M8.49841 15.4023L18.8697 21.822L12.5919 14.8643L8.49841 15.4023Z" fill="#D5E613"/>
</svg>
