<svg width="164" height="61" viewBox="0 0 164 61" fill="none" xmlns="http://www.w3.org/2000/svg">
<path d="M87.3115 35.341C86.7992 38.2845 85.5677 40.5698 83.6182 42.1967C81.668 43.8245 79.2841 44.6377 76.466 44.6377C73.2776 44.6377 70.6591 43.6188 68.6095 41.5813C67.243 40.1948 66.389 38.6878 66.0473 37.0602C65.7057 35.4331 65.535 32.8363 65.535 29.2703C65.535 25.7044 65.7057 23.1082 66.0473 21.4805C66.389 19.8534 67.243 18.3463 68.6095 16.9594C70.6591 14.9217 73.2776 13.9029 76.466 13.9029C79.3122 13.9029 81.6969 14.7168 83.6182 16.3439C85.5398 17.9717 86.7705 20.2567 87.3115 23.1998H82.6149C82.2732 21.5866 81.5753 20.313 80.5226 19.3792C79.4689 18.4452 78.1168 17.9783 76.466 17.9783C74.6441 17.9783 73.1496 18.6011 71.9827 19.8461C71.214 20.6388 70.7157 21.6504 70.4882 22.8813C70.26 24.1126 70.1466 26.2422 70.1466 29.2703C70.1466 32.2989 70.26 34.4281 70.4882 35.6592C70.7157 36.8903 71.214 37.9026 71.9827 38.6944C73.1496 39.9401 74.6441 40.5624 76.466 40.5624C78.1168 40.5624 79.4765 40.0955 80.5437 39.1615C81.6114 38.2275 82.3298 36.954 82.7002 35.341H87.3115Z" fill="#FAFAFA"/>
<path d="M116.347 44.3831H110.497L98.2421 28.5487L109.6 14.1578H115.28L103.58 28.4213L116.347 44.3831ZM98.1997 44.3831H93.588V14.1578H98.1997V44.3831Z" fill="#FAFAFA"/>
<path d="M135.348 34.407L130.694 20.9924L125.911 34.407H135.348ZM143.546 44.3831H138.721L136.586 38.3125H124.588L122.453 44.3831H117.585L128.73 14.1578H132.444L143.546 44.3831Z" fill="#FAFAFA"/>
<path d="M163.999 18.2754H155.63V44.3831H151.019V18.2754H142.65V14.1578H163.999V18.2754Z" fill="#FAFAFA"/>
<path d="M78.2628 49.301C78.2816 49.3197 78.2911 49.3457 78.2911 49.3785L78.504 54.1396H78.3268L78.1138 49.4279H77.9436L76.3402 53.653C76.3258 53.6955 76.295 53.7165 76.2479 53.7165H75.9498C75.9025 53.7165 75.8719 53.6955 75.8575 53.653L74.2543 49.4279H74.0841L73.8712 54.1396H73.6937L73.9066 49.3785C73.9066 49.3457 73.9162 49.3197 73.935 49.301C73.9538 49.2822 73.9799 49.2727 74.0131 49.2727H74.3111C74.3583 49.2727 74.3891 49.2939 74.4032 49.3361L75.7585 52.8983L76.0067 53.5613H76.1911L76.4466 52.8842L77.7947 49.3361C77.8088 49.2939 77.8395 49.2727 77.8868 49.2727H78.1846C78.2178 49.2727 78.2438 49.2822 78.2628 49.301Z" fill="#FAFAFA"/>
<path d="M81.3702 53.8045C81.6777 53.6658 81.9306 53.5026 82.1293 53.3141V52.2352L80.4125 52.2633C80.2042 52.2679 80.0458 52.3233 79.9372 52.4289C79.8282 52.5347 79.7739 52.6889 79.7739 52.891V53.3282C79.7739 53.554 79.8366 53.7246 79.9618 53.8399C80.0873 53.955 80.2728 54.0126 80.5189 54.0126C80.7789 54.0126 81.0626 53.9432 81.3702 53.8045ZM82.2998 51.6144V54.1395H82.1718L82.1365 53.4836C81.9707 53.6529 81.7297 53.8115 81.4128 53.9598C81.096 54.1076 80.7859 54.1819 80.4834 54.1819C80.1995 54.1819 79.9808 54.1076 79.8271 53.9598C79.6733 53.8115 79.5967 53.6011 79.5967 53.3282V52.891C79.5967 52.6371 79.6675 52.4409 79.8094 52.302C79.9513 52.1635 80.1522 52.094 80.4125 52.094H82.1293V51.6144C82.1293 51.0923 81.8691 50.8313 81.349 50.8313C80.8807 50.8313 80.3487 50.8691 79.7526 50.9443L79.7315 50.8172L79.93 50.7892C80.2042 50.7515 80.4433 50.7221 80.6467 50.701C80.8499 50.6798 81.0865 50.669 81.356 50.669C81.985 50.669 82.2998 50.9842 82.2998 51.6144Z" fill="#FAFAFA"/>
<path d="M85.8008 53.9034C85.9546 53.7975 86.0668 53.6283 86.138 53.3954C86.209 53.1627 86.2443 52.8463 86.2443 52.4467C86.2443 52.0471 86.209 51.7307 86.138 51.498C86.0668 51.2651 85.9546 51.0959 85.8008 50.9902C85.647 50.8844 85.4426 50.8314 85.1871 50.8314C84.9695 50.8314 84.7545 50.8844 84.5415 50.9902C84.3286 51.0959 84.0781 51.2713 83.7896 51.5156V53.7233C84.0923 53.8457 84.3474 53.9327 84.5557 53.9846C84.764 54.0362 84.9744 54.062 85.1871 54.062C85.4426 54.062 85.647 54.0092 85.8008 53.9034ZM85.9072 50.8457C86.0847 50.9632 86.2148 51.1512 86.2976 51.4097C86.3804 51.6685 86.4217 52.0141 86.4217 52.4467C86.4217 52.8793 86.3804 53.2249 86.2976 53.4837C86.2148 53.7424 86.0847 53.9303 85.9072 54.048C85.73 54.1653 85.49 54.2243 85.1871 54.2243C84.96 54.2243 84.732 54.1937 84.5026 54.1326C84.273 54.0714 84.0283 53.9774 83.7682 53.8504C83.7824 53.9587 83.7896 54.0996 83.7896 54.2737V54.4994V55.6208H83.6191V50.7539H83.7469L83.7754 51.3677C84.0306 51.1325 84.272 50.9574 84.4989 50.842C84.726 50.7269 84.9554 50.6691 85.1871 50.6691C85.49 50.6691 85.73 50.728 85.9072 50.8457Z" fill="#FAFAFA"/>
<path d="M89.3268 52.602C89.4901 52.7385 89.6295 52.9066 89.7454 53.1063C89.8614 53.3062 90.0043 53.5848 90.1747 53.9422C90.2219 54.0506 90.2527 54.1161 90.2671 54.1396H90.0753L89.9688 53.9282C89.7986 53.5707 89.6555 53.2968 89.5397 53.1063C89.4237 52.9161 89.2783 52.7583 89.1034 52.6338C88.9283 52.5091 88.7156 52.4468 88.4649 52.4468H87.7482C87.7577 52.5409 87.7626 52.6772 87.7626 52.8559V54.1396H87.5923V50.754H87.7626V51.8897C87.7626 51.9743 87.7577 52.1107 87.7482 52.2987H88.4577C88.7082 52.2987 88.9225 52.2281 89.0997 52.087C89.2772 51.9461 89.4226 51.7815 89.5362 51.5933C89.6497 51.4054 89.7986 51.1257 89.9832 50.754H90.1676C89.9925 51.1114 89.8494 51.3888 89.7383 51.5862C89.6272 51.7838 89.4889 51.9591 89.3233 52.1117C89.1577 52.2646 88.9685 52.3504 88.7557 52.3693V52.3762C88.9733 52.3903 89.1637 52.4657 89.3268 52.602Z" fill="#FAFAFA"/>
<path d="M91.7569 50.9832C91.5725 51.0844 91.4377 51.2476 91.3526 51.4734C91.2675 51.6992 91.2223 52.0024 91.2178 52.3833H93.1119C93.3058 52.3833 93.4466 52.3268 93.5342 52.2141C93.6217 52.1011 93.6655 51.9319 93.6655 51.7061C93.6655 51.4053 93.5719 51.1842 93.3853 51.0431C93.1984 50.902 92.9064 50.8314 92.5091 50.8314C92.192 50.8314 91.9413 50.8821 91.7569 50.9832ZM93.7363 53.9703L93.7648 54.0973C93.6558 54.1303 93.4763 54.1596 93.2255 54.1857C92.9748 54.2113 92.7526 54.2244 92.5587 54.2244C92.1943 54.2244 91.9023 54.1643 91.6824 54.0443C91.4625 53.9244 91.3006 53.7341 91.1963 53.4729C91.0924 53.2121 91.0404 52.8653 91.0404 52.4327C91.0404 51.9953 91.0889 51.6496 91.1858 51.3959C91.2828 51.142 91.4377 50.9575 91.6504 50.842C91.8633 50.727 92.1472 50.6691 92.5019 50.6691C92.956 50.6691 93.293 50.7539 93.5129 50.9232C93.733 51.0924 93.8428 51.3488 93.8428 51.692C93.8428 51.9789 93.7861 52.1917 93.6725 52.3305C93.5591 52.4691 93.3721 52.5385 93.1119 52.5385H91.2178C91.2273 52.9148 91.2805 53.2146 91.3774 53.4378C91.4744 53.6612 91.6198 53.8211 91.8137 53.9175C92.0076 54.0139 92.263 54.0621 92.5798 54.0621C92.9725 54.0621 93.358 54.0316 93.7363 53.9703Z" fill="#FAFAFA"/>
<path d="M97.2695 50.9092H95.9001V54.1396H95.7229V50.9092H94.3607V50.754H97.2695V50.9092Z" fill="#FAFAFA"/>
<path d="M100.937 54.1396H100.767V51.0007H100.76C100.713 51.0761 100.644 51.1725 100.554 51.2901L98.3054 54.1396H98.1493V50.754H98.3195V53.4979V53.8929H98.3267C98.388 53.7988 98.4661 53.6929 98.5607 53.5755L100.781 50.754H100.937V54.1396Z" fill="#FAFAFA"/>
<path d="M104.953 50.754V54.1396H104.783V52.4044H102.442V54.1396H102.271V50.754H102.442V52.2563H104.783V50.754H104.953Z" fill="#FAFAFA"/>
<path d="M108.515 50.775V50.9092H106.961C106.786 50.9092 106.656 50.9527 106.571 51.0394C106.486 51.1268 106.443 51.2594 106.443 51.4382V54.1396H106.273V51.417C106.273 51.2101 106.331 51.0478 106.447 50.9303C106.563 50.8129 106.722 50.754 106.926 50.754C107.621 50.754 108.15 50.7611 108.515 50.775Z" fill="#FAFAFA"/>
<path d="M109.82 50.9832C109.631 51.0844 109.494 51.2511 109.409 51.484C109.323 51.7167 109.281 52.0377 109.281 52.4467C109.281 52.8559 109.323 53.1768 109.409 53.4095C109.494 53.6424 109.631 53.8095 109.82 53.9103C110.009 54.0116 110.267 54.0621 110.594 54.0621C110.92 54.0621 111.177 54.0116 111.367 53.9103C111.556 53.8095 111.693 53.6424 111.778 53.4095C111.863 53.1768 111.906 52.8559 111.906 52.4467C111.906 52.0377 111.863 51.7167 111.778 51.484C111.693 51.2511 111.556 51.0844 111.367 50.9832C111.177 50.8821 110.92 50.8314 110.594 50.8314C110.267 50.8314 110.009 50.8821 109.82 50.9832ZM111.47 50.842C111.685 50.9575 111.841 51.143 111.938 51.3994C112.035 51.6558 112.083 52.0049 112.083 52.4467C112.083 52.8888 112.035 53.2381 111.938 53.4944C111.841 53.7505 111.685 53.9364 111.47 54.0515C111.254 54.1665 110.962 54.2244 110.594 54.2244C110.224 54.2244 109.932 54.1665 109.717 54.0515C109.502 53.9364 109.346 53.7505 109.249 53.4944C109.152 53.2381 109.103 52.8888 109.103 52.4467C109.103 52.0049 109.152 51.6558 109.249 51.3994C109.346 51.143 109.502 50.9575 109.717 50.842C109.932 50.727 110.224 50.6691 110.594 50.6691C110.962 50.6691 111.254 50.727 111.47 50.842Z" fill="#FAFAFA"/>
<path d="M115.336 53.9667C115.499 53.9268 115.618 53.8539 115.691 53.7481C115.764 53.6423 115.801 53.4906 115.801 53.2931C115.801 53.0769 115.762 52.9099 115.684 52.7924C115.606 52.675 115.48 52.5912 115.308 52.5419C115.135 52.4926 114.895 52.4679 114.588 52.4679H113.41V54.0196C113.514 54.0244 113.772 54.0267 114.183 54.0267H114.644C114.942 54.0267 115.173 54.0069 115.336 53.9667ZM114.07 50.8737C113.724 50.8737 113.504 50.8763 113.41 50.8807V52.3267H114.588C114.867 52.3223 115.083 52.3009 115.237 52.2633C115.391 52.2258 115.503 52.1575 115.574 52.0586C115.645 51.9601 115.68 51.8166 115.68 51.6285C115.68 51.4262 115.641 51.2713 115.563 51.1629C115.485 51.0548 115.36 50.9796 115.187 50.9372C115.015 50.8947 114.772 50.8737 114.46 50.8737H114.07ZM115.783 52.6583C115.913 52.8043 115.978 53.018 115.978 53.3001C115.978 53.5307 115.936 53.7093 115.851 53.8362C115.765 53.963 115.628 54.0525 115.439 54.1044C115.25 54.1558 114.987 54.1819 114.651 54.1819C114.075 54.1819 113.606 54.1678 113.247 54.1395V50.761C113.559 50.7328 113.963 50.7186 114.46 50.7186C114.815 50.7186 115.091 50.7444 115.29 50.7962C115.489 50.8479 115.633 50.9386 115.723 51.0677C115.813 51.1973 115.858 51.3817 115.858 51.6214C115.858 51.8612 115.799 52.0445 115.68 52.1715C115.562 52.2986 115.375 52.3717 115.12 52.3901V52.4042C115.432 52.4279 115.653 52.5126 115.783 52.6583Z" fill="#FAFAFA"/>
<path d="M117.646 50.9832C117.456 51.0844 117.319 51.2511 117.234 51.484C117.149 51.7167 117.106 52.0377 117.106 52.4467C117.106 52.8559 117.149 53.1768 117.234 53.4095C117.319 53.6424 117.456 53.8095 117.646 53.9103C117.835 54.0116 118.093 54.0621 118.419 54.0621C118.745 54.0621 119.003 54.0116 119.192 53.9103C119.381 53.8095 119.519 53.6424 119.604 53.4095C119.689 53.1768 119.731 52.8559 119.731 52.4467C119.731 52.0377 119.689 51.7167 119.604 51.484C119.519 51.2511 119.381 51.0844 119.192 50.9832C119.003 50.8821 118.745 50.8314 118.419 50.8314C118.093 50.8314 117.835 50.8821 117.646 50.9832ZM119.295 50.842C119.51 50.9575 119.666 51.143 119.763 51.3994C119.86 51.6558 119.909 52.0049 119.909 52.4467C119.909 52.8888 119.86 53.2381 119.763 53.4944C119.666 53.7505 119.51 53.9364 119.295 54.0515C119.08 54.1665 118.788 54.2244 118.419 54.2244C118.05 54.2244 117.758 54.1665 117.543 54.0515C117.327 53.9364 117.171 53.7505 117.075 53.4944C116.977 53.2381 116.929 52.8888 116.929 52.4467C116.929 52.0049 116.977 51.6558 117.075 51.3994C117.171 51.143 117.327 50.9575 117.543 50.842C117.758 50.727 118.05 50.6691 118.419 50.6691C118.788 50.6691 119.08 50.727 119.295 50.842Z" fill="#FAFAFA"/>
<path d="M121.611 50.9832C121.427 51.0844 121.292 51.2476 121.207 51.4734C121.122 51.6992 121.077 52.0024 121.072 52.3833H122.966C123.16 52.3833 123.301 52.3268 123.389 52.2141C123.476 52.1011 123.52 51.9319 123.52 51.7061C123.52 51.4053 123.426 51.1842 123.24 51.0431C123.053 50.902 122.761 50.8314 122.364 50.8314C122.047 50.8314 121.796 50.8821 121.611 50.9832ZM123.591 53.9703L123.619 54.0973C123.51 54.1303 123.331 54.1596 123.08 54.1857C122.829 54.2113 122.607 54.2244 122.413 54.2244C122.049 54.2244 121.757 54.1643 121.537 54.0443C121.317 53.9244 121.155 53.7341 121.051 53.4729C120.947 53.2121 120.895 52.8653 120.895 52.4327C120.895 51.9953 120.943 51.6496 121.04 51.3959C121.137 51.142 121.292 50.9575 121.505 50.842C121.718 50.727 122.002 50.6691 122.356 50.6691C122.811 50.6691 123.148 50.7539 123.367 50.9232C123.587 51.0924 123.697 51.3488 123.697 51.692C123.697 51.9789 123.641 52.1917 123.527 52.3305C123.414 52.4691 123.227 52.5385 122.966 52.5385H121.072C121.082 52.9148 121.135 53.2146 121.232 53.4378C121.329 53.6612 121.474 53.8211 121.668 53.9175C121.862 54.0139 122.118 54.0621 122.434 54.0621C122.827 54.0621 123.213 54.0316 123.591 53.9703Z" fill="#FAFAFA"/>
<path d="M128.018 53.8045C128.325 53.6658 128.579 53.5026 128.777 53.3141V52.2352L127.06 52.2633C126.852 52.2679 126.694 52.3233 126.585 52.4289C126.476 52.5347 126.422 52.6889 126.422 52.891V53.3282C126.422 53.554 126.484 53.7246 126.61 53.8399C126.735 53.955 126.921 54.0126 127.167 54.0126C127.427 54.0126 127.71 53.9432 128.018 53.8045ZM128.948 51.6144V54.1395H128.82L128.784 53.4836C128.619 53.6529 128.377 53.8115 128.061 53.9598C127.744 54.1076 127.434 54.1819 127.131 54.1819C126.847 54.1819 126.629 54.1076 126.475 53.9598C126.321 53.8115 126.244 53.6011 126.244 53.3282V52.891C126.244 52.6371 126.315 52.4409 126.457 52.302C126.599 52.1635 126.8 52.094 127.06 52.094H128.777V51.6144C128.777 51.0923 128.517 50.8313 127.997 50.8313C127.529 50.8313 126.996 50.8691 126.4 50.9443L126.379 50.8172L126.578 50.7892C126.852 50.7515 127.091 50.7221 127.294 50.701C127.498 50.6798 127.734 50.669 128.004 50.669C128.633 50.669 128.948 50.9842 128.948 51.6144Z" fill="#FAFAFA"/>
<path d="M132.488 50.775V50.9092H130.934C130.759 50.9092 130.629 50.9527 130.544 51.0394C130.459 51.1268 130.416 51.2594 130.416 51.4382V54.1396H130.246V51.417C130.246 51.2101 130.304 51.0478 130.42 50.9303C130.536 50.8129 130.695 50.754 130.899 50.754C131.594 50.754 132.124 50.7611 132.488 50.775Z" fill="#FAFAFA"/>
<path d="M133.786 50.9832C133.602 51.0844 133.467 51.2476 133.382 51.4734C133.297 51.6992 133.251 52.0024 133.247 52.3833H135.141C135.335 52.3833 135.476 52.3268 135.563 52.2141C135.651 52.1011 135.695 51.9319 135.695 51.7061C135.695 51.4053 135.601 51.1842 135.414 51.0431C135.227 50.902 134.935 50.8314 134.538 50.8314C134.221 50.8314 133.97 50.8821 133.786 50.9832ZM135.765 53.9703L135.794 54.0973C135.685 54.1303 135.505 54.1596 135.255 54.1857C135.004 54.2113 134.782 54.2244 134.588 54.2244C134.223 54.2244 133.931 54.1643 133.711 54.0443C133.492 53.9244 133.33 53.7341 133.226 53.4729C133.121 53.2121 133.069 52.8653 133.069 52.4327C133.069 51.9953 133.118 51.6496 133.215 51.3959C133.312 51.142 133.467 50.9575 133.68 50.842C133.892 50.727 134.176 50.6691 134.531 50.6691C134.985 50.6691 135.322 50.7539 135.542 50.9232C135.762 51.0924 135.872 51.3488 135.872 51.692C135.872 51.9789 135.815 52.1917 135.702 52.3305C135.588 52.4691 135.401 52.5385 135.141 52.5385H133.247C133.256 52.9148 133.31 53.2146 133.406 53.4378C133.503 53.6612 133.649 53.8211 133.843 53.9175C134.037 54.0139 134.292 54.0621 134.609 54.0621C135.002 54.0621 135.387 54.0316 135.765 53.9703Z" fill="#FAFAFA"/>
<path d="M139.667 50.754V54.1396H139.497V52.4044H137.156V54.1396H136.986V50.754H137.156V52.2563H139.497V50.754H139.667Z" fill="#FAFAFA"/>
<path d="M142.867 50.6975C143.042 50.7163 143.198 50.747 143.335 50.7893L143.293 50.9163C143.18 50.8879 143.038 50.8669 142.867 50.8528C142.697 50.8386 142.543 50.8314 142.406 50.8314C142.051 50.8314 141.773 50.8798 141.572 50.976C141.371 51.0726 141.226 51.2372 141.136 51.4699C141.046 51.7026 141.001 52.0282 141.001 52.4467C141.001 52.8653 141.046 53.1911 141.136 53.4238C141.226 53.6566 141.371 53.8211 141.572 53.9175C141.773 54.0139 142.051 54.0621 142.406 54.0621C142.534 54.0621 142.695 54.0549 142.889 54.0409C143.083 54.0268 143.248 54.0056 143.385 53.9774L143.414 54.1045C143.059 54.1843 142.716 54.2244 142.385 54.2244C142.002 54.2244 141.697 54.1665 141.47 54.0515C141.243 53.9364 141.078 53.7493 140.977 53.4907C140.875 53.2321 140.824 52.8842 140.824 52.4467C140.824 52.0095 140.875 51.6616 140.977 51.4028C141.078 51.1443 141.241 50.9575 141.466 50.842C141.691 50.727 141.995 50.6691 142.378 50.6691C142.529 50.6691 142.692 50.6788 142.867 50.6975Z" fill="#FAFAFA"/>
<path d="M146.847 50.9092H145.478V54.1396H145.301V50.9092H143.939V50.754H146.847V50.9092Z" fill="#FAFAFA"/>
<path d="M149.817 53.9667C149.98 53.9268 150.098 53.8539 150.171 53.7481C150.244 53.6423 150.281 53.4906 150.281 53.2931C150.281 53.0769 150.242 52.9099 150.164 52.7924C150.086 52.675 149.961 52.5912 149.788 52.5419C149.615 52.4926 149.375 52.4679 149.068 52.4679H147.89V54.0196C147.994 54.0244 148.252 54.0267 148.664 54.0267H149.125C149.423 54.0267 149.653 54.0069 149.817 53.9667ZM148.55 50.8737C148.205 50.8737 147.985 50.8763 147.89 50.8807V52.3267H149.068C149.347 52.3223 149.563 52.3009 149.717 52.2633C149.871 52.2258 149.983 52.1575 150.054 52.0586C150.125 51.9601 150.161 51.8166 150.161 51.6285C150.161 51.4262 150.122 51.2713 150.044 51.1629C149.966 51.0548 149.84 50.9796 149.668 50.9372C149.495 50.8947 149.252 50.8737 148.94 50.8737H148.55ZM150.263 52.6583C150.394 52.8043 150.459 53.018 150.459 53.3001C150.459 53.5307 150.416 53.7093 150.331 53.8362C150.246 53.963 150.109 54.0525 149.919 54.1044C149.73 54.1558 149.467 54.1819 149.132 54.1819C148.555 54.1819 148.086 54.1678 147.727 54.1395V50.761C148.039 50.7328 148.444 50.7186 148.94 50.7186C149.295 50.7186 149.572 50.7444 149.77 50.7962C149.969 50.8479 150.113 50.9386 150.203 51.0677C150.293 51.1973 150.338 51.3817 150.338 51.6214C150.338 51.8612 150.279 52.0445 150.161 52.1715C150.042 52.2986 149.855 52.3717 149.6 52.3901V52.4042C149.912 52.4279 150.133 52.5126 150.263 52.6583Z" fill="#FAFAFA"/>
<path d="M152.126 50.9832C151.937 51.0844 151.799 51.2511 151.714 51.484C151.629 51.7167 151.587 52.0377 151.587 52.4467C151.587 52.8559 151.629 53.1768 151.714 53.4095C151.799 53.6424 151.937 53.8095 152.126 53.9103C152.315 54.0116 152.573 54.0621 152.899 54.0621C153.225 54.0621 153.483 54.0116 153.672 53.9103C153.861 53.8095 153.999 53.6424 154.084 53.4095C154.169 53.1768 154.212 52.8559 154.212 52.4467C154.212 52.0377 154.169 51.7167 154.084 51.484C153.999 51.2511 153.861 51.0844 153.672 50.9832C153.483 50.8821 153.225 50.8314 152.899 50.8314C152.573 50.8314 152.315 50.8821 152.126 50.9832ZM153.775 50.842C153.991 50.9575 154.146 51.143 154.244 51.3994C154.34 51.6558 154.389 52.0049 154.389 52.4467C154.389 52.8888 154.34 53.2381 154.244 53.4944C154.146 53.7505 153.991 53.9364 153.775 54.0515C153.56 54.1665 153.268 54.2244 152.899 54.2244C152.53 54.2244 152.238 54.1665 152.023 54.0515C151.808 53.9364 151.651 53.7505 151.555 53.4944C151.458 53.2381 151.409 52.8888 151.409 52.4467C151.409 52.0049 151.458 51.6558 151.555 51.3994C151.651 51.143 151.808 50.9575 152.023 50.842C152.238 50.727 152.53 50.6691 152.899 50.6691C153.268 50.6691 153.56 50.727 153.775 50.842Z" fill="#FAFAFA"/>
<path d="M8.18354 21.6684L13.2801 26.4053L21.3189 25.3417L8.18354 21.6684Z" fill="#C2E245"/>
<path d="M12.1277 21.6084L12.0648 19.2794L8.82745 18.5387L12.1277 21.6084Z" fill="#E6E009"/>
<path d="M5.68363 19.894L7.15303 19.643L4.61069 17.4856L5.68363 19.894Z" fill="#E6E009"/>
<path d="M9.07901 20.8127L7.95434 18.9595L7.40034 20.4731L9.07901 20.8127Z" fill="#F7D606"/>
<path d="M9.48319 17.7708L8.93139 16.983L8.61704 17.6532L9.48319 17.7708Z" fill="#F7D606"/>
<path d="M6.71598 15.8281L6.33635 15.2295L6.14001 15.7242L6.71598 15.8281Z" fill="#F7D606"/>
<path d="M5.17168 16.6494L5.85968 16.5204L5.48563 16.1468L5.17168 16.6494Z" fill="#F68114"/>
<path d="M7.66408 18.251L6.87791 17.1716L6.41527 18.1008L7.66408 18.251Z" fill="#F7D606"/>
<path d="M19.4267 24.2883L13.1889 19.2575L13.2101 21.8639L19.4267 24.2883Z" fill="#D5E613"/>
<path d="M40.3523 9.49084L41.7595 16.7346L41.8908 6.81465L40.3523 9.49084Z" fill="#7847A7"/>
<path d="M40.6227 3.34084L41.4911 5.07202L41.5346 3.72775L40.6227 3.34084Z" fill="#7847A7"/>
<path d="M39.8135 8.18701L39.0274 4.14978L40.4759 6.33419L39.8135 8.18701Z" fill="#654AA9"/>
<path d="M40.3977 2.72046L40.2364 1.35923L39.7693 2.09199L40.3977 2.72046Z" fill="#654AA9"/>
<path d="M41.1414 19.363L41.6015 19.9851L41.6244 19.5022L41.1414 19.363Z" fill="#7847A7"/>
<path d="M41.0221 19.1404L40.9368 18.6515L40.6892 18.9146L41.0221 19.1404Z" fill="#654AA9"/>
<path d="M42.1204 1.95796L42.2556 2.37109L42.274 2.07459L42.1204 1.95796Z" fill="#9F3FA5"/>
<path d="M38.4549 1.08247L38.5771 1.47266L38.5907 1.23997L38.4549 1.08247Z" fill="#654AA9"/>
<path d="M39.1255 0.000489831L39.3145 1.52539L39.4154 0.565148L39.1255 0.000489831Z" fill="#654AA9"/>
<path d="M38.5932 2.93945L38.3281 1.83905L38.3169 2.51842L38.5932 2.93945Z" fill="#9F3FA5"/>
<path d="M38.2124 1.13354L38.261 0.668746L38.1098 0.94635L38.2124 1.13354Z" fill="#654AA9"/>
<path d="M3.83022 15.6199L4.43414 15.7866L4.13812 15.4604L3.83022 15.6199Z" fill="#F68114"/>
<path d="M3.27197 14.8826L3.09268 14.594L3.00195 14.8313L3.27197 14.8826Z" fill="#F68114"/>
<path d="M24.9991 36.3107L14.0518 27.5468L33.1145 38.2576L24.9991 36.3107Z" fill="#E6E009"/>
<path d="M26.4047 43.2306L35.9153 45.1309L24.9989 36.307L26.4047 43.2306Z" fill="#F68114"/>
<path d="M35.3018 43.0158L39.8897 45.9912L33.1145 38.2576L35.3018 43.0158Z" fill="#F6E907"/>
<path d="M26.4047 43.2306L37.4922 52.1062L35.1106 48.7041L26.4047 43.2306Z" fill="#77311B"/>
<path d="M35.9153 45.1309L39.3746 48.0767L26.4047 43.2307L35.9153 45.1309Z" fill="#F68114"/>
<path d="M39.3747 48.0767L48.9791 52.825L37.7716 51.4987L39.3747 48.0767Z" fill="#F68114"/>
<path d="M37.4922 52.1062L57.8623 59.25L48.2074 55.195L37.4922 52.1062Z" fill="#77311B"/>
<path d="M48.9791 52.8248L59.3959 57.2631L57.8623 59.25L48.9791 52.8248Z" fill="#F2F14D"/>
<path d="M59.3959 57.2633L65.4924 59.7173L57.8623 59.2502L59.3959 57.2633Z" fill="#F47515"/>
<path d="M65.4924 59.7173L67.8014 58.0942L66.2155 58.4509L65.4924 59.7173Z" fill="#F47515"/>
<path d="M64.0538 57.9175L59.3959 57.2633L65.4924 59.7173L64.0538 57.9175Z" fill="#F8AF0B"/>
<path d="M0 60.9998L6.14599 51.3515L5.03805 50.8896L0 60.9998Z" fill="#F47515"/>
<path d="M5.03805 50.8894L14.0009 44.3577L6.14599 51.3513L5.03805 50.8894Z" fill="#F8AF0B"/>
<path d="M14.0009 44.3579L22.8509 38.6857L24.0508 40.245L14.0009 44.3579Z" fill="#F68114"/>
<path d="M12.6109 42.5499L14.0009 44.3577L5.03805 50.8894L12.6109 42.5499Z" fill="#5943A3"/>
<path d="M12.6109 42.5501L22.0873 37.6659L14.0009 44.3579L12.6109 42.5501Z" fill="#5956AF"/>
<path d="M69.2901 53.5837L62.3271 49.1881L60.9197 52.3986L69.2901 53.5837Z" fill="#F6E907"/>
<path d="M60.9196 52.3987L57.8902 46.3868L62.327 49.1881L60.9196 52.3987Z" fill="#F8AF0B"/>
<path d="M69.2901 53.5837L57.6525 41.7718L57.8902 46.3868L69.2901 53.5837Z" fill="#6CC7D9"/>
<path d="M44.6755 8.41553L43.3281 19.6233L52.1309 25.5991L44.6755 8.41553Z" fill="#7847A7"/>
<path d="M52.1309 25.5993L49.7555 35.7773L48.0499 32.6205L52.1309 25.5993Z" fill="#4F4DA9"/>
<path d="M52.1309 25.5993L49.7555 35.7774L57.6524 41.7717L52.1309 25.5993Z" fill="#494EA9"/>
<path d="M57.6524 41.7717L57.8902 46.3867L49.7555 35.7774L57.6524 41.7717Z" fill="#67A4DA"/>
<path d="M48.9791 52.8248L52.1408 51.1112L59.3959 57.2632L48.9791 52.8248Z" fill="#67A4DA"/>
<path d="M50.8827 50.4308L39.8835 45.9908L48.9791 52.825L50.8827 50.4308Z" fill="#67A4DA"/>
<path d="M37.3336 32.7757L57.8902 46.3867L49.7555 35.7774L37.3336 32.7757Z" fill="#74C5D8"/>
<path d="M37.3336 32.7756L41.4415 21.6361L48.0499 32.6204L37.3336 32.7756Z" fill="#757AC5"/>
<path d="M37.3336 32.7757L39.8835 45.9908L57.8902 46.3867L37.3336 32.7757Z" fill="#70CFD3"/>
<path d="M38.6027 39.3527L32.6683 37.7528L39.8835 45.9907L38.6027 39.3527Z" fill="#67A4DA"/>
<path d="M34.87 35.4038L27.8745 32.8499L32.6683 37.7527L34.87 35.4038Z" fill="#6CC6D9"/>
<path d="M22.0873 37.6659L21.0222 36.403L12.6109 42.55L22.0873 37.6659Z" fill="#67A4DA"/>
<path d="M60.9196 52.3987L58.2834 50.6194L57.8902 46.3868L60.9196 52.3987Z" fill="#F68114"/>
<path d="M66.0753 56.478L59.7892 55.5501L59.3959 57.2632L66.0753 56.478Z" fill="#70CFD3"/>
<path d="M59.7892 55.5501L51.7552 50.7846L59.3959 57.2632L59.7892 55.5501Z" fill="#6CC7D9"/>
<path d="M51.7552 50.7847L57.8902 46.3868L56.4417 50.2621L51.7552 50.7847Z" fill="#6CC7D9"/>
<path d="M56.4417 50.2619L59.7892 55.55L51.7552 50.7845L56.4417 50.2619Z" fill="#70CFD3"/>
<path d="M58.2835 50.6191L56.4417 50.2619L57.8902 46.3866L58.2835 50.6191Z" fill="#F47515"/>
<path d="M60.9197 52.3985L66.9843 54.3398L67.1077 53.2735L60.9197 52.3985Z" fill="#F47515"/>
<path d="M66.9843 54.3398L69.2901 53.5836L67.1076 53.2735L66.9843 54.3398Z" fill="#F47515"/>
<path d="M39.8835 45.9908L39.3747 48.0768L44.483 49.448L39.8835 45.9908Z" fill="#F2F14D"/>
<path d="M44.483 49.448L48.9791 52.825L44.0525 50.3901L44.483 49.448Z" fill="#F2F14D"/>
<path d="M39.3747 48.0765L44.483 49.4477L44.0525 50.3899L39.3747 48.0765Z" fill="#F6E907"/>
<path d="M35.9153 45.131L39.3746 48.0767L39.6833 46.8116L35.9153 45.131Z" fill="#F8AF0B"/>
<path d="M39.8835 45.9907L35.9153 45.1309L35.3018 43.0159L39.8835 45.9907Z" fill="#F6E907"/>
<path d="M35.3018 43.0158L24.9989 36.307L35.9153 45.1309L35.3018 43.0158Z" fill="#F8AF0B"/>
<path d="M26.4047 43.2306L35.1106 48.7041L39.3746 48.0766L26.4047 43.2306Z" fill="#F68114"/>
<path d="M35.1106 48.704L39.3747 48.0765L37.7716 51.4985L35.1106 48.704Z" fill="#F68114"/>
<path d="M22.7817 36.4805L24.9989 36.3072L26.4047 43.2307L22.7817 36.4805Z" fill="#F68114"/>
<path d="M22.7817 36.4805L24.9989 36.3072L14.0515 27.5431L22.7817 36.4805Z" fill="#F7D606"/>
<path d="M64.0538 57.9175L65.4924 59.7173L66.2155 58.4509L64.0538 57.9175Z" fill="#F8AF0B"/>
<path d="M59.3959 57.2633L66.0753 56.4782L64.0538 57.9175L59.3959 57.2633Z" fill="#F8EA45"/>
<path d="M66.0753 56.478L66.2155 58.4507L67.8015 58.094L66.0753 56.478Z" fill="#F8AF0B"/>
<path d="M51.7551 50.7847L57.8902 46.3868L39.8835 45.9908L51.7551 50.7847Z" fill="#6CC7D9"/>
<path d="M32.6683 37.7526L37.3336 32.7756L38.6027 39.3525L32.6683 37.7526Z" fill="#70CFD3"/>
<path d="M27.872 32.8504L37.3336 32.7758L34.8684 35.4065L27.872 32.8504Z" fill="#70CFD3"/>
<path d="M37.3336 32.7757L48.0499 32.6206L49.7555 35.7773L37.3336 32.7757Z" fill="#6686CD"/>
<path d="M42.8117 21.499L48.0499 32.6206L51.4356 25.6161L42.8117 21.499Z" fill="#654AA9"/>
<path d="M58.4045 51.924L58.5608 53.6052L60.9197 52.3986L58.4045 51.924Z" fill="#31261C"/>
<path d="M58.4045 51.924L56.4417 50.262L58.5608 53.6052L58.4045 51.924Z" fill="#3C3C56"/>
<path d="M58.2834 50.6194L58.4044 51.9241L60.9196 52.3987L58.2834 50.6194Z" fill="#77311B"/>
<path d="M58.2835 50.6193L56.4417 50.2621L58.4045 51.9241L58.2835 50.6193Z" fill="#77311B"/>
<path d="M35.1106 48.704L37.7716 51.4986L37.4922 52.1062L35.1106 48.704Z" fill="#A2551F"/>
<path d="M37.4922 52.1064L37.7716 51.4987L48.3466 53.3545L37.4922 52.1064Z" fill="#F1571C"/>
<path d="M48.2074 55.1951L48.3466 53.3544L37.4922 52.1063L48.2074 55.1951Z" fill="#77311B"/>
<path d="M48.9791 52.8249L48.3466 53.3545L37.7716 51.4987L48.9791 52.8249Z" fill="#F68114"/>
<path d="M39.8835 45.9907L35.9153 45.1308L39.6834 46.8115L39.8835 45.9907Z" fill="#F6E907"/>
<path d="M48.3466 53.3543L48.9791 52.8248L57.8623 59.25L48.3466 53.3543Z" fill="#F8AF0B"/>
<path d="M48.3466 53.3543L48.2074 55.195L57.8623 59.25L48.3466 53.3543Z" fill="#F68114"/>
<path d="M20.0304 35.1277L21.0222 36.403L12.6109 42.55L20.0304 35.1277Z" fill="#70CFD3"/>
<path d="M14.0009 44.3579L25.1257 41.6465L24.0508 40.245L14.0009 44.3579Z" fill="#A2551F"/>
<path d="M22.0873 37.6659L22.8509 38.6857L14.0009 44.3579L22.0873 37.6659Z" fill="#F8AF0B"/>
<path d="M50.8827 50.4306L50.5789 51.6421L51.7551 50.7846L50.8827 50.4306Z" fill="#E5D8E1"/>
<path d="M52.1408 51.1112L50.5789 51.6421L51.7551 50.7846L52.1408 51.1112Z" fill="#5956AF"/>
<path d="M50.8827 50.4308L50.5789 51.6422L48.9791 52.825L50.8827 50.4308Z" fill="#67A4DA"/>
<path d="M48.9791 52.825L50.5789 51.6422L52.1408 51.1113L48.9791 52.825Z" fill="#67A4DA"/>
<path d="M51.1377 50.8869L50.8827 50.4306L51.7551 50.7845L52.1408 51.1111L51.5587 50.9254L51.1377 50.8869Z" fill="#3C3C56"/>
<path d="M66.2155 58.4507L66.0753 56.478L64.0538 57.9173L66.2155 58.4507Z" fill="#F6E907"/>
<path d="M24.9989 36.3071L33.1145 38.2576L35.3018 43.0159L24.9989 36.3071Z" fill="#F8AF0B"/>
<path d="M42.3205 18.7454L42.4444 2.41058L44.0636 5.70599L42.3205 18.7454Z" fill="#9F3FA5"/>
<path d="M13.7279 27.812L26.4047 43.2307L22.7817 36.4805L13.7279 27.812Z" fill="#F7A40F"/>
<path d="M14.827 26.8443L32.9216 38.033L21.9689 25.9066L14.827 26.8443Z" fill="#D5E613"/>
</svg>
