<svg width="50" height="50" viewBox="0 0 50 50" fill="none" xmlns="http://www.w3.org/2000/svg">
<circle cx="25" cy="25" r="25" fill="#39434C"/>
<g clip-path="url(#clip0)">
<path d="M26.8323 25.0165L34.6199 17.2287C35.1267 16.7221 35.1267 15.9031 34.6199 15.3965C34.1134 14.89 33.2943 14.89 32.7878 15.3965L24.9999 23.1844L17.2123 15.3965C16.7055 14.89 15.8867 14.89 15.3801 15.3965C14.8733 15.9031 14.8733 16.7221 15.3801 17.2287L23.1677 25.0165L15.3801 32.8044C14.8733 33.311 14.8733 34.13 15.3801 34.6366C15.6326 34.8893 15.9645 35.0162 16.2962 35.0162C16.6279 35.0162 16.9596 34.8893 17.2123 34.6366L24.9999 26.8487L32.7878 34.6366C33.0404 34.8893 33.3721 35.0162 33.7038 35.0162C34.0355 35.0162 34.3672 34.8893 34.6199 34.6366C35.1267 34.13 35.1267 33.311 34.6199 32.8044L26.8323 25.0165Z" fill="#FD7427"/>
</g>
<defs>
<clipPath id="clip0">
<rect width="20" height="20" fill="white" transform="translate(15 15)"/>
</clipPath>
</defs>
</svg>
