<svg width="304" height="87" viewBox="0 0 304 87" fill="none" xmlns="http://www.w3.org/2000/svg">
<path d="M299.956 8C299.956 3.58172 296.375 0 291.956 0H8.00001C3.58173 0 0 3.58172 0 8V71.966C0 76.3842 3.58172 79.966 8 79.966H279.908C285.371 79.966 290.773 81.1137 295.764 83.3348L300.488 85.4371C301.967 86.0952 303.574 84.8157 303.264 83.227L300.678 69.9662C300.198 67.5065 299.956 65.0063 299.956 62.5003V8Z" fill="#39444D"/>
<path d="M20.6 29.864H18.04V35H16.888V23.8H18.04V28.824H20.6L24.392 23.8H25.672L21.512 29.24L25.912 35H24.552L20.6 29.864ZM30.838 35.08C30.0273 35.08 29.2967 34.8987 28.646 34.536C27.9953 34.1627 27.4833 33.6507 27.11 33C26.7367 32.3493 26.55 31.6133 26.55 30.792C26.55 29.9707 26.7367 29.2347 27.11 28.584C27.4833 27.9333 27.9953 27.4267 28.646 27.064C29.2967 26.7013 30.0273 26.52 30.838 26.52C31.6487 26.52 32.3793 26.7013 33.03 27.064C33.6807 27.4267 34.1873 27.9333 34.55 28.584C34.9233 29.2347 35.11 29.9707 35.11 30.792C35.11 31.6133 34.9233 32.3493 34.55 33C34.1873 33.6507 33.6807 34.1627 33.03 34.536C32.3793 34.8987 31.6487 35.08 30.838 35.08ZM30.838 34.072C31.4353 34.072 31.9687 33.9387 32.438 33.672C32.918 33.3947 33.2913 33.0053 33.558 32.504C33.8247 32.0027 33.958 31.432 33.958 30.792C33.958 30.152 33.8247 29.5813 33.558 29.08C33.2913 28.5787 32.918 28.1947 32.438 27.928C31.9687 27.6507 31.4353 27.512 30.838 27.512C30.2407 27.512 29.702 27.6507 29.222 27.928C28.7527 28.1947 28.3793 28.5787 28.102 29.08C27.8353 29.5813 27.702 30.152 27.702 30.792C27.702 31.432 27.8353 32.0027 28.102 32.504C28.3793 33.0053 28.7527 33.3947 29.222 33.672C29.702 33.9387 30.2407 34.072 30.838 34.072ZM46.9459 26.584V35H45.9059V28.344L42.4979 33.976H41.9859L38.5779 28.328V35H37.5379V26.584H38.6899L42.2579 32.648L45.8899 26.584H46.9459ZM57.3305 26.584L53.1225 36.008C52.7812 36.7973 52.3865 37.3573 51.9385 37.688C51.4905 38.0187 50.9518 38.184 50.3225 38.184C49.9172 38.184 49.5385 38.12 49.1865 37.992C48.8345 37.864 48.5305 37.672 48.2745 37.416L48.8025 36.568C49.2292 36.9947 49.7412 37.208 50.3385 37.208C50.7225 37.208 51.0478 37.1013 51.3145 36.888C51.5918 36.6747 51.8478 36.312 52.0825 35.8L52.4505 34.984L48.6905 26.584H49.8745L53.0425 33.736L56.2105 26.584H57.3305ZM68.5519 35L65.8799 31.48L63.1919 35H61.9119L65.2399 30.68L62.0719 26.584H63.3519L65.8799 29.88L68.4079 26.584H69.6559L66.4879 30.68L69.8479 35H68.5519ZM78.3774 26.584L74.1694 36.008C73.828 36.7973 73.4334 37.3573 72.9854 37.688C72.5374 38.0187 71.9987 38.184 71.3694 38.184C70.964 38.184 70.5854 38.12 70.2334 37.992C69.8814 37.864 69.5774 37.672 69.3214 37.416L69.8494 36.568C70.276 36.9947 70.788 37.208 71.3854 37.208C71.7694 37.208 72.0947 37.1013 72.3614 36.888C72.6387 36.6747 72.8947 36.312 73.1294 35.8L73.4974 34.984L69.7374 26.584H70.9214L74.0894 33.736L77.2574 26.584H78.3774ZM87.9803 34.008V37.032H86.9083V35H79.3723V37.032H78.3003V34.008H78.7803C79.3456 33.976 79.7296 33.56 79.9323 32.76C80.1349 31.96 80.2736 30.84 80.3483 29.4L80.4603 26.584H86.6683V34.008H87.9803ZM81.3883 29.464C81.3349 30.6587 81.2336 31.6453 81.0843 32.424C80.9349 33.192 80.6683 33.72 80.2843 34.008H85.5323V27.592H81.4843L81.3883 29.464ZM90.1941 26.584H91.3301V33.272L96.9461 26.584H97.9541V35H96.8181V28.312L91.2181 35H90.1941V26.584ZM20.088 54.08C19.2773 54.08 18.5467 53.8987 17.896 53.536C17.2453 53.1627 16.7333 52.6507 16.36 52C15.9867 51.3493 15.8 50.6133 15.8 49.792C15.8 48.9707 15.9867 48.2347 16.36 47.584C16.7333 46.9333 17.2453 46.4267 17.896 46.064C18.5467 45.7013 19.2773 45.52 20.088 45.52C20.8987 45.52 21.6293 45.7013 22.28 46.064C22.9307 46.4267 23.4373 46.9333 23.8 47.584C24.1733 48.2347 24.36 48.9707 24.36 49.792C24.36 50.6133 24.1733 51.3493 23.8 52C23.4373 52.6507 22.9307 53.1627 22.28 53.536C21.6293 53.8987 20.8987 54.08 20.088 54.08ZM20.088 53.072C20.6853 53.072 21.2187 52.9387 21.688 52.672C22.168 52.3947 22.5413 52.0053 22.808 51.504C23.0747 51.0027 23.208 50.432 23.208 49.792C23.208 49.152 23.0747 48.5813 22.808 48.08C22.5413 47.5787 22.168 47.1947 21.688 46.928C21.2187 46.6507 20.6853 46.512 20.088 46.512C19.4907 46.512 18.952 46.6507 18.472 46.928C18.0027 47.1947 17.6293 47.5787 17.352 48.08C17.0853 48.5813 16.952 49.152 16.952 49.792C16.952 50.432 17.0853 51.0027 17.352 51.504C17.6293 52.0053 18.0027 52.3947 18.472 52.672C18.952 52.9387 19.4907 53.072 20.088 53.072ZM32.3954 46.592H29.2114V54H28.0754V46.592H24.8914V45.584H32.3954V46.592ZM41.2814 50.256H39.3614V54H38.2254V45.584H39.3614V49.28H41.2974L44.2574 45.584H45.4894L42.1774 49.664L45.7294 54H44.3854L41.2814 50.256ZM51.8583 45.52C52.6476 45.52 53.3623 45.7013 54.0023 46.064C54.6423 46.416 55.1436 46.9173 55.5063 47.568C55.8689 48.2187 56.0503 48.96 56.0503 49.792C56.0503 50.6347 55.8689 51.3813 55.5063 52.032C55.1436 52.6827 54.6423 53.1893 54.0023 53.552C53.3729 53.904 52.6583 54.08 51.8583 54.08C51.1756 54.08 50.5569 53.9413 50.0023 53.664C49.4583 53.376 49.0103 52.96 48.6583 52.416V57.104H47.5223V45.584H48.6103V47.248C48.9516 46.6933 49.3996 46.2667 49.9543 45.968C50.5196 45.6693 51.1543 45.52 51.8583 45.52ZM51.7783 53.072C52.3649 53.072 52.8983 52.9387 53.3783 52.672C53.8583 52.3947 54.2316 52.0053 54.4983 51.504C54.7756 51.0027 54.9143 50.432 54.9143 49.792C54.9143 49.152 54.7756 48.5867 54.4983 48.096C54.2316 47.5947 53.8583 47.2053 53.3783 46.928C52.8983 46.6507 52.3649 46.512 51.7783 46.512C51.1809 46.512 50.6423 46.6507 50.1623 46.928C49.6929 47.2053 49.3196 47.5947 49.0423 48.096C48.7756 48.5867 48.6423 49.152 48.6423 49.792C48.6423 50.432 48.7756 51.0027 49.0423 51.504C49.3196 52.0053 49.6929 52.3947 50.1623 52.672C50.6423 52.9387 51.1809 53.072 51.7783 53.072ZM65.4086 45.584L61.2006 55.008C60.8593 55.7973 60.4646 56.3573 60.0166 56.688C59.5686 57.0187 59.03 57.184 58.4006 57.184C57.9953 57.184 57.6166 57.12 57.2646 56.992C56.9126 56.864 56.6086 56.672 56.3526 56.416L56.8806 55.568C57.3073 55.9947 57.8193 56.208 58.4166 56.208C58.8006 56.208 59.126 56.1013 59.3926 55.888C59.67 55.6747 59.926 55.312 60.1606 54.8L60.5286 53.984L56.7686 45.584H57.9526L61.1206 52.736L64.2886 45.584H65.4086ZM73.1298 46.592H69.9458V54H68.8098V46.592H65.6258V45.584H73.1298V46.592ZM77.8536 54.08C77.043 54.08 76.3123 53.8987 75.6616 53.536C75.011 53.1627 74.499 52.6507 74.1256 52C73.7523 51.3493 73.5656 50.6133 73.5656 49.792C73.5656 48.9707 73.7523 48.2347 74.1256 47.584C74.499 46.9333 75.011 46.4267 75.6616 46.064C76.3123 45.7013 77.043 45.52 77.8536 45.52C78.6643 45.52 79.395 45.7013 80.0456 46.064C80.6963 46.4267 81.203 46.9333 81.5656 47.584C81.939 48.2347 82.1256 48.9707 82.1256 49.792C82.1256 50.6133 81.939 51.3493 81.5656 52C81.203 52.6507 80.6963 53.1627 80.0456 53.536C79.395 53.8987 78.6643 54.08 77.8536 54.08ZM77.8536 53.072C78.451 53.072 78.9843 52.9387 79.4536 52.672C79.9336 52.3947 80.307 52.0053 80.5736 51.504C80.8403 51.0027 80.9736 50.432 80.9736 49.792C80.9736 49.152 80.8403 48.5813 80.5736 48.08C80.307 47.5787 79.9336 47.1947 79.4536 46.928C78.9843 46.6507 78.451 46.512 77.8536 46.512C77.2563 46.512 76.7176 46.6507 76.2376 46.928C75.7683 47.1947 75.395 47.5787 75.1176 48.08C74.851 48.5813 74.7176 49.152 74.7176 49.792C74.7176 50.432 74.851 51.0027 75.1176 51.504C75.395 52.0053 75.7683 52.3947 76.2376 52.672C76.7176 52.9387 77.2563 53.072 77.8536 53.072ZM90.5055 46.592H85.6895V54H84.5535V45.584H90.5055V46.592ZM95.2286 54.08C94.418 54.08 93.6873 53.8987 93.0366 53.536C92.386 53.1627 91.874 52.6507 91.5006 52C91.1273 51.3493 90.9406 50.6133 90.9406 49.792C90.9406 48.9707 91.1273 48.2347 91.5006 47.584C91.874 46.9333 92.386 46.4267 93.0366 46.064C93.6873 45.7013 94.418 45.52 95.2286 45.52C96.0393 45.52 96.77 45.7013 97.4206 46.064C98.0713 46.4267 98.578 46.9333 98.9406 47.584C99.314 48.2347 99.5006 48.9707 99.5006 49.792C99.5006 50.6133 99.314 51.3493 98.9406 52C98.578 52.6507 98.0713 53.1627 97.4206 53.536C96.77 53.8987 96.0393 54.08 95.2286 54.08ZM95.2286 53.072C95.826 53.072 96.3593 52.9387 96.8286 52.672C97.3086 52.3947 97.682 52.0053 97.9486 51.504C98.2153 51.0027 98.3486 50.432 98.3486 49.792C98.3486 49.152 98.2153 48.5813 97.9486 48.08C97.682 47.5787 97.3086 47.1947 96.8286 46.928C96.3593 46.6507 95.826 46.512 95.2286 46.512C94.6313 46.512 94.0926 46.6507 93.6126 46.928C93.1433 47.1947 92.77 47.5787 92.4926 48.08C92.226 48.5813 92.0926 49.152 92.0926 49.792C92.0926 50.432 92.226 51.0027 92.4926 51.504C92.77 52.0053 93.1433 52.3947 93.6126 52.672C94.0926 52.9387 94.6313 53.072 95.2286 53.072ZM114.324 53.008V56.032H113.252V54H105.716V56.032H104.644V53.008H105.124C105.689 52.976 106.073 52.56 106.276 51.76C106.479 50.96 106.617 49.84 106.692 48.4L106.804 45.584H113.012V53.008H114.324ZM107.732 48.464C107.679 49.6587 107.577 50.6453 107.428 51.424C107.279 52.192 107.012 52.72 106.628 53.008H111.876V46.592H107.828L107.732 48.464ZM116.538 45.584H117.674V52.272L123.29 45.584H124.298V54H123.162V47.312L117.562 54H116.538V45.584ZM131.478 49.616C132.075 49.7547 132.534 49.9947 132.854 50.336C133.184 50.6773 133.35 51.0933 133.35 51.584C133.35 52.0747 133.179 52.512 132.838 52.896C132.507 53.28 132.054 53.5787 131.478 53.792C130.902 53.9947 130.267 54.096 129.574 54.096C128.966 54.096 128.368 54.0107 127.782 53.84C127.195 53.6587 126.683 53.3973 126.246 53.056L126.63 52.208C127.014 52.496 127.462 52.72 127.974 52.88C128.486 53.04 129.003 53.12 129.526 53.12C130.304 53.12 130.939 52.976 131.43 52.688C131.931 52.3893 132.182 51.9893 132.182 51.488C132.182 51.04 131.979 50.6933 131.574 50.448C131.168 50.192 130.614 50.064 129.91 50.064H128.47V49.232H129.846C130.475 49.232 130.982 49.1147 131.366 48.88C131.75 48.6347 131.942 48.3093 131.942 47.904C131.942 47.456 131.723 47.104 131.286 46.848C130.859 46.592 130.299 46.464 129.606 46.464C128.699 46.464 127.803 46.6933 126.918 47.152L126.598 46.272C127.6 45.7493 128.64 45.488 129.718 45.488C130.358 45.488 130.934 45.584 131.446 45.776C131.968 45.9573 132.374 46.2187 132.662 46.56C132.96 46.9013 133.11 47.296 133.11 47.744C133.11 48.1707 132.96 48.5493 132.662 48.88C132.374 49.2107 131.979 49.456 131.478 49.616ZM138.825 45.52C139.923 45.52 140.766 45.7973 141.353 46.352C141.939 46.896 142.233 47.7067 142.233 48.784V54H141.145V52.688C140.889 53.1253 140.51 53.4667 140.009 53.712C139.518 53.9573 138.931 54.08 138.249 54.08C137.31 54.08 136.563 53.856 136.009 53.408C135.454 52.96 135.177 52.368 135.177 51.632C135.177 50.9173 135.433 50.3413 135.945 49.904C136.467 49.4667 137.294 49.248 138.424 49.248H141.097V48.736C141.097 48.0107 140.894 47.4613 140.489 47.088C140.083 46.704 139.491 46.512 138.713 46.512C138.179 46.512 137.667 46.6027 137.177 46.784C136.686 46.9547 136.265 47.1947 135.913 47.504L135.401 46.656C135.827 46.2933 136.339 46.016 136.937 45.824C137.534 45.6213 138.163 45.52 138.825 45.52ZM138.424 53.184C139.065 53.184 139.614 53.04 140.073 52.752C140.531 52.4533 140.873 52.0267 141.097 51.472V50.096H138.457C137.017 50.096 136.297 50.5973 136.297 51.6C136.297 52.0907 136.483 52.48 136.857 52.768C137.23 53.0453 137.753 53.184 138.424 53.184ZM145.257 45.584H146.393V52.272L152.009 45.584H153.017V54H151.881V47.312L146.281 54H145.257V45.584ZM149.081 44.368C148.355 44.368 147.779 44.1867 147.353 43.824C146.926 43.4613 146.707 42.9493 146.697 42.288H147.513C147.523 42.704 147.673 43.04 147.961 43.296C148.249 43.5413 148.622 43.664 149.081 43.664C149.539 43.664 149.913 43.5413 150.201 43.296C150.499 43.04 150.654 42.704 150.665 42.288H151.481C151.47 42.9493 151.246 43.4613 150.809 43.824C150.382 44.1867 149.806 44.368 149.081 44.368ZM156.272 45.584H157.408V49.312H162.704V45.584H163.84V54H162.704V50.288H157.408V54H156.272V45.584ZM174.429 50.144H167.389C167.453 51.0187 167.789 51.728 168.397 52.272C169.005 52.8053 169.773 53.072 170.701 53.072C171.224 53.072 171.704 52.9813 172.141 52.8C172.578 52.608 172.957 52.3307 173.277 51.968L173.917 52.704C173.544 53.152 173.074 53.4933 172.509 53.728C171.954 53.9627 171.341 54.08 170.669 54.08C169.805 54.08 169.037 53.8987 168.365 53.536C167.704 53.1627 167.186 52.6507 166.813 52C166.44 51.3493 166.253 50.6133 166.253 49.792C166.253 48.9707 166.429 48.2347 166.781 47.584C167.144 46.9333 167.634 46.4267 168.253 46.064C168.882 45.7013 169.586 45.52 170.365 45.52C171.144 45.52 171.842 45.7013 172.461 46.064C173.08 46.4267 173.565 46.9333 173.917 47.584C174.269 48.224 174.445 48.96 174.445 49.792L174.429 50.144ZM170.365 46.496C169.554 46.496 168.872 46.7573 168.317 47.28C167.773 47.792 167.464 48.464 167.389 49.296H173.357C173.282 48.464 172.968 47.792 172.413 47.28C171.869 46.7573 171.186 46.496 170.365 46.496ZM181.296 45.52C182.085 45.52 182.8 45.7013 183.44 46.064C184.08 46.416 184.581 46.9173 184.944 47.568C185.306 48.2187 185.488 48.96 185.488 49.792C185.488 50.6347 185.306 51.3813 184.944 52.032C184.581 52.6827 184.08 53.1893 183.44 53.552C182.81 53.904 182.096 54.08 181.296 54.08C180.613 54.08 179.994 53.9413 179.44 53.664C178.896 53.376 178.448 52.96 178.096 52.416V57.104H176.96V45.584H178.048V47.248C178.389 46.6933 178.837 46.2667 179.392 45.968C179.957 45.6693 180.592 45.52 181.296 45.52ZM181.216 53.072C181.802 53.072 182.336 52.9387 182.816 52.672C183.296 52.3947 183.669 52.0053 183.936 51.504C184.213 51.0027 184.352 50.432 184.352 49.792C184.352 49.152 184.213 48.5867 183.936 48.096C183.669 47.5947 183.296 47.2053 182.816 46.928C182.336 46.6507 181.802 46.512 181.216 46.512C180.618 46.512 180.08 46.6507 179.6 46.928C179.13 47.2053 178.757 47.5947 178.48 48.096C178.213 48.5867 178.08 49.152 178.08 49.792C178.08 50.432 178.213 51.0027 178.48 51.504C178.757 52.0053 179.13 52.3947 179.6 52.672C180.08 52.9387 180.618 53.072 181.216 53.072ZM190.778 45.52C191.876 45.52 192.719 45.7973 193.306 46.352C193.892 46.896 194.186 47.7067 194.186 48.784V54H193.098V52.688C192.842 53.1253 192.463 53.4667 191.962 53.712C191.471 53.9573 190.884 54.08 190.202 54.08C189.263 54.08 188.516 53.856 187.962 53.408C187.407 52.96 187.13 52.368 187.13 51.632C187.13 50.9173 187.386 50.3413 187.898 49.904C188.42 49.4667 189.247 49.248 190.378 49.248H193.05V48.736C193.05 48.0107 192.847 47.4613 192.442 47.088C192.036 46.704 191.444 46.512 190.666 46.512C190.132 46.512 189.62 46.6027 189.13 46.784C188.639 46.9547 188.218 47.1947 187.866 47.504L187.354 46.656C187.78 46.2933 188.292 46.016 188.89 45.824C189.487 45.6213 190.116 45.52 190.778 45.52ZM190.378 53.184C191.018 53.184 191.567 53.04 192.026 52.752C192.484 52.4533 192.826 52.0267 193.05 51.472V50.096H190.41C188.97 50.096 188.25 50.5973 188.25 51.6C188.25 52.0907 188.436 52.48 188.81 52.768C189.183 53.0453 189.706 53.184 190.378 53.184ZM199.51 50.64C199.51 50.2027 199.579 49.8187 199.718 49.488C199.867 49.1573 200.049 48.8747 200.262 48.64C200.475 48.4053 200.753 48.1387 201.094 47.84C201.553 47.4347 201.889 47.0827 202.102 46.784C202.326 46.4747 202.438 46.1013 202.438 45.664C202.438 45.0773 202.209 44.608 201.75 44.256C201.291 43.8933 200.662 43.712 199.862 43.712C198.539 43.712 197.521 44.144 196.806 45.008L195.958 44.368C196.865 43.2587 198.193 42.704 199.942 42.704C201.062 42.704 201.953 42.9547 202.614 43.456C203.286 43.9573 203.622 44.6347 203.622 45.488C203.622 45.9253 203.547 46.3147 203.398 46.656C203.259 46.9867 203.083 47.2693 202.87 47.504C202.667 47.7387 202.395 48.0107 202.054 48.32C201.595 48.736 201.254 49.1093 201.03 49.44C200.806 49.76 200.694 50.16 200.694 50.64H199.51ZM200.102 54.08C199.867 54.08 199.67 54 199.51 53.84C199.35 53.6693 199.27 53.472 199.27 53.248C199.27 53.0133 199.35 52.8213 199.51 52.672C199.67 52.512 199.867 52.432 200.102 52.432C200.347 52.432 200.55 52.512 200.71 52.672C200.87 52.8213 200.95 53.0133 200.95 53.248C200.95 53.472 200.865 53.6693 200.694 53.84C200.534 54 200.337 54.08 200.102 54.08Z" fill="white"/>
</svg>
