<svg width="44" height="44" viewBox="0 0 44 44" fill="none" xmlns="http://www.w3.org/2000/svg">
<path d="M22 44C34.1503 44 44 34.1503 44 22C44 9.84974 34.1503 0 22 0C9.84974 0 0 9.84974 0 22C0 34.1503 9.84974 44 22 44Z" fill="url(#paint0_linear)"/>
<path d="M28.302 35.75H15.698C11.5913 35.75 8.25 32.4091 8.25 28.302V15.698C8.25 11.5909 11.5913 8.25 15.698 8.25H28.302C32.4091 8.25 35.75 11.5909 35.75 15.698V28.3023C35.75 32.4091 32.4091 35.75 28.302 35.75ZM15.698 10.5418C12.8549 10.5418 10.5418 12.8549 10.5418 15.698V28.3023C10.5418 31.1455 12.8549 33.4586 15.698 33.4586H28.302C31.1451 33.4586 33.4582 31.1455 33.4582 28.3023V15.698C33.4582 12.8549 31.1451 10.5418 28.302 10.5418H15.698Z" fill="white"/>
<path d="M22 28.875C18.2091 28.875 15.125 25.7905 15.125 22C15.125 18.2088 18.2091 15.125 22 15.125C25.7909 15.125 28.875 18.2088 28.875 22C28.875 25.7905 25.7909 28.875 22 28.875ZM22 17.4168C19.4727 17.4168 17.4168 19.4727 17.4168 22C17.4168 24.5276 19.4727 26.5832 22 26.5832C24.5273 26.5832 26.5832 24.5276 26.5832 22C26.5832 19.4727 24.5276 17.4168 22 17.4168Z" fill="white"/>
<path d="M29.3047 16.2708C30.1748 16.2708 30.8802 15.5655 30.8802 14.6954C30.8802 13.8253 30.1748 13.12 29.3047 13.12C28.4347 13.12 27.7293 13.8253 27.7293 14.6954C27.7293 15.5655 28.4347 16.2708 29.3047 16.2708Z" fill="white"/>
<defs>
<linearGradient id="paint0_linear" x1="9.38046" y1="40.0231" x2="34.6199" y2="3.97733" gradientUnits="userSpaceOnUse">
<stop stop-color="#FFB900"/>
<stop offset="1" stop-color="#9100EB"/>
</linearGradient>
</defs>
</svg>
