<svg width="44" height="44" viewBox="0 0 44 44" fill="none" xmlns="http://www.w3.org/2000/svg">
<path d="M22 44C34.1503 44 44 34.1503 44 22C44 9.84974 34.1503 0 22 0C9.84974 0 0 9.84974 0 22C0 34.1503 9.84974 44 22 44Z" fill="#039BE5"/>
<path d="M10.0667 21.5232L31.2784 13.3447C32.2629 12.989 33.1227 13.5848 32.8037 15.0735L32.8055 15.0717L29.1939 32.0868C28.9262 33.2932 28.2094 33.5865 27.2065 33.0182L21.7065 28.9647L19.0537 31.5203C18.7604 31.8137 18.5129 32.0612 17.9445 32.0612L18.335 26.464L28.5284 17.2552C28.972 16.8647 28.4294 16.6447 27.8445 17.0333L15.2477 24.9643L9.81736 23.2703C8.63853 22.8963 8.61286 22.0915 10.0667 21.5232Z" fill="white"/>
</svg>
