<svg width="44" height="44" viewBox="0 0 44 44" fill="none" xmlns="http://www.w3.org/2000/svg">
<path d="M21.9998 43.9996C34.15 43.9996 43.9996 34.15 43.9996 21.9998C43.9996 9.84965 34.15 0 21.9998 0C9.84965 0 0 9.84965 0 21.9998C0 34.15 9.84965 43.9996 21.9998 43.9996Z" fill="#7C519B"/>
<path d="M21.8819 12.9131C22.0212 12.785 22.12 12.7669 22.6054 12.7821C22.8601 12.7909 23.2307 12.8202 23.4341 12.8442C24.4598 12.9723 25.2894 13.2197 26.1978 13.6626C27.0919 14.1006 27.6649 14.5142 28.4222 15.2676C29.1306 15.9789 29.5246 16.5177 29.9421 17.3542C30.5234 18.5211 30.8544 19.9086 30.9111 21.4354C30.9316 21.9565 30.917 22.0734 30.7982 22.221C30.5713 22.5104 30.0731 22.4625 29.904 22.1379C29.8492 22.0308 29.8341 21.9384 29.817 21.5209C29.7871 20.881 29.7427 20.4679 29.6527 19.9731C29.3007 18.0357 28.3713 16.4878 26.8866 15.3776C25.6487 14.4497 24.3703 13.996 22.6954 13.8987C22.1283 13.8664 22.03 13.8454 21.9019 13.7467C21.6638 13.5584 21.6516 13.1185 21.8819 12.9131ZM25.4351 16.747C24.8357 16.3901 23.9504 16.1256 23.1432 16.0596C22.8499 16.0356 22.6895 15.9765 22.5795 15.8484C22.4094 15.6548 22.3918 15.3927 22.5345 15.1752C22.6895 14.9347 22.9276 14.8955 23.6399 15.0021C25.4498 15.2676 26.8514 16.107 27.769 17.4705C28.2863 18.2381 28.6075 19.1405 28.718 20.108C28.7556 20.4625 28.7556 21.1078 28.7136 21.2149C28.6759 21.3161 28.5498 21.4534 28.4427 21.5102C28.3269 21.5693 28.0785 21.5634 27.9416 21.4921C27.7128 21.3767 27.6439 21.1914 27.6439 20.6918C27.6439 19.9203 27.4444 19.1078 27.0988 18.4776C26.7047 17.756 26.1327 17.1615 25.4351 16.747ZM26.4427 20.7152C26.2672 20.8756 25.9416 20.8815 25.7446 20.7304C25.6023 20.6223 25.5568 20.5089 25.5241 20.2034C25.4859 19.7956 25.4146 19.5092 25.2914 19.2447C25.0293 18.6824 24.5673 18.3901 23.7861 18.2948C23.4199 18.2508 23.3089 18.2087 23.1901 18.0684C22.9721 17.8098 23.0562 17.3903 23.3573 17.2349C23.4703 17.1796 23.5172 17.1728 23.7685 17.1879C23.923 17.1967 24.1528 17.2231 24.275 17.25C24.8621 17.3752 25.3129 17.5986 25.6967 17.9584C26.1924 18.4263 26.4637 18.9914 26.583 19.8039C26.6637 20.3344 26.6304 20.5427 26.4427 20.7152ZM30.8959 28.5354C30.6764 29.1035 29.8175 30.1693 29.2181 30.6244C28.6759 31.0351 28.2907 31.1925 27.7832 31.2174C27.3667 31.2375 27.1936 31.2013 26.6602 30.9818C22.4744 29.2585 19.1319 26.687 16.4782 23.1528C15.0928 21.3073 14.0372 19.3938 13.3147 17.4074C12.8957 16.2502 12.8752 15.7472 13.2203 15.1542C13.3699 14.9048 14.004 14.2854 14.4675 13.9408C15.2365 13.3688 15.5914 13.1576 15.8735 13.0974C16.0681 13.0554 16.4044 13.0886 16.619 13.1664C16.7227 13.2016 16.885 13.2857 16.9764 13.3448C17.5435 13.7203 19.1202 15.735 19.6355 16.7411C19.9307 17.316 20.0295 17.7409 19.9366 18.0567C19.8408 18.3955 19.6824 18.5744 18.9769 19.1435C18.6934 19.3728 18.4274 19.6074 18.3864 19.6705C18.2788 19.825 18.1923 20.1291 18.1923 20.3427C18.1952 20.8404 18.5179 21.7414 18.9408 22.4356C19.2693 22.9744 19.8555 23.6647 20.4377 24.1946C21.1202 24.8199 21.722 25.2457 22.4026 25.5821C23.2752 26.0167 23.8096 26.1262 24.1997 25.9448C24.2984 25.9008 24.4031 25.8407 24.4348 25.8138C24.4647 25.7869 24.694 25.5073 24.9452 25.1978C25.4278 24.5906 25.5387 24.4924 25.8692 24.3794C26.2902 24.2362 26.7189 24.2743 27.1511 24.4948C27.4796 24.6649 28.1949 25.1088 28.6564 25.4295C29.265 25.8554 30.565 26.9153 30.741 27.1265C31.0519 27.5083 31.1057 27.9962 30.8959 28.5354Z" fill="white"/>
</svg>
